<?xml version="1.0" encoding="iso-8859-1"?>
<!-- Generator: Adobe Illustrator 19.0.0, SVG Export Plug-In . SVG Version: 6.00 Build 0)  -->
<svg version="1.1" id="Capa_1" xmlns="http://www.w3.org/2000/svg" xmlns:xlink="http://www.w3.org/1999/xlink" x="0px" y="0px"
	 viewBox="0 0 512 512" style="enable-background:new 0 0 512 512;" xml:space="preserve">
<g>
	<g>
		<path d="M256,233.5c-1.404,0-2.776,0.136-4.109,0.383l-68.646-118.897c-2.07-3.588-6.659-4.816-10.245-2.746
			c-3.587,2.071-4.816,6.658-2.745,10.245l68.652,118.908c-3.367,3.934-5.407,9.035-5.407,14.606c0,9.777,6.271,18.114,15,21.21
			V444.5c0,4.143,3.357,7.5,7.5,7.5s7.5-3.357,7.5-7.5V277.21c8.729-3.096,15-11.433,15-21.21
			C278.5,243.594,268.406,233.5,256,233.5z M256,263.5c-4.136,0-7.5-3.364-7.5-7.5s3.364-7.5,7.5-7.5s7.5,3.364,7.5,7.5
			S260.136,263.5,256,263.5z"/>
	</g>
</g>
<g>
	<g>
		<path d="M437.02,74.98C388.668,26.629,324.38,0,256,0S123.332,26.629,74.98,74.98C26.628,123.331,0,187.62,0,256
			s26.629,132.668,74.98,181.02C123.331,485.372,187.62,512,256,512s132.668-26.629,181.02-74.98
			C485.372,388.669,512,324.38,512,256S485.371,123.332,437.02,74.98z M256,497C123.112,497,15,388.888,15,256S123.112,15,256,15
			s241,108.112,241,241S388.888,497,256,497z"/>
	</g>
</g>
<g>
	<g>
		<circle cx="256" cy="67.5" r="7.5"/>
	</g>
</g>
<g>
	<g>
		<circle cx="161.75" cy="92.75" r="7.5"/>
	</g>
</g>
<g>
	<g>
		<circle cx="92.75" cy="161.75" r="7.5"/>
	</g>
</g>
<g>
	<g>
		<circle cx="67.5" cy="256" r="7.5"/>
	</g>
</g>
<g>
	<g>
		<circle cx="92.75" cy="350.25" r="7.5"/>
	</g>
</g>
<g>
	<g>
		<circle cx="161.75" cy="419.25" r="7.5"/>
	</g>
</g>
<g>
	<g>
		<circle cx="350.25" cy="419.25" r="7.5"/>
	</g>
</g>
<g>
	<g>
		<circle cx="419.25" cy="350.25" r="7.5"/>
	</g>
</g>
<g>
	<g>
		<circle cx="444.5" cy="256" r="7.5"/>
	</g>
</g>
<g>
	<g>
		<circle cx="419.25" cy="161.75" r="7.5"/>
	</g>
</g>
<g>
	<g>
		<circle cx="350.25" cy="92.75" r="7.5"/>
	</g>
</g>
<g>
	<g>
		<path d="M415.806,96.194C373.12,53.508,316.366,30,256,30c-54.611,0-107.335,19.748-148.458,55.604
			c-3.122,2.723-3.446,7.46-0.725,10.582c2.723,3.123,7.461,3.446,10.582,0.724C155.791,63.436,205.013,45,256,45
			c116.346,0,211,94.654,211,211s-94.654,211-211,211S45,372.346,45,256c0-50.987,18.436-100.209,51.91-138.601
			c2.723-3.122,2.398-7.859-0.724-10.582c-3.12-2.722-7.858-2.399-10.582,0.725C49.748,148.665,30,201.389,30,256
			c0,60.366,23.508,117.12,66.194,159.806C138.88,458.492,195.634,482,256,482c60.366,0,117.12-23.508,159.806-66.194
			C458.492,373.12,482,316.366,482,256C482,195.634,458.492,138.88,415.806,96.194z"/>
	</g>
</g>
<g>
</g>
<g>
</g>
<g>
</g>
<g>
</g>
<g>
</g>
<g>
</g>
<g>
</g>
<g>
</g>
<g>
</g>
<g>
</g>
<g>
</g>
<g>
</g>
<g>
</g>
<g>
</g>
<g>
</g>
</svg>
