<svg id="Capa_1" enable-background="new 0 0 480.003 480.003" height="512" viewBox="0 0 480.003 480.003" width="512" xmlns="http://www.w3.org/2000/svg"><path d="m348.013 128v-80c-.03-26.497-21.503-47.97-48-48h-64c-26.497.03-47.97 21.503-48 48v80c.032 23.409 16.923 43.391 40 47.321v104.679c0 2.122.843 4.157 2.343 5.657l32 32c3.124 3.124 8.189 3.124 11.314 0l32-32c1.5-1.5 2.343-3.535 2.343-5.657v-20.687l13.657-13.656c3.124-3.124 3.124-8.189 0-11.314l-10.344-10.343 10.344-10.343c3.124-3.124 3.124-8.189 0-11.314l-13.657-13.656v-13.366c23.077-3.93 39.968-23.912 40-47.321zm-53.657 101.657 10.344 10.343-10.344 10.343c-1.5 1.5-2.343 3.535-2.343 5.657v20.687l-16 16v-100.687h-16v100.687l-16-16v-100.687h48v16c0 2.122.843 4.157 2.343 5.657l10.344 10.343-10.344 10.343c-3.124 3.124-3.124 8.189 0 11.314zm5.657-69.657h-64c-17.665-.02-31.98-14.335-32-32v-80c.02-17.665 14.335-31.98 32-32h64c17.665.02 31.98 14.335 32 32v80c-.02 17.665-14.335 31.98-32 32z"/><path d="m292.013 32h-48c-13.249.015-23.985 10.751-24 24v16c0 4.418 3.582 8 8 8h80c4.418 0 8-3.582 8-8v-16c-.015-13.249-10.751-23.985-24-24zm8 32h-64v-8c.005-4.416 3.584-7.995 8-8h48c4.416.005 7.995 3.584 8 8z"/><path d="m308.013 96h-80c-4.418 0-8 3.582-8 8v16c.015 13.249 10.751 23.985 24 24h48c13.249-.015 23.985-10.751 24-24v-16c0-4.418-3.582-8-8-8zm-8 24c-.005 4.416-3.584 7.995-8 8h-48c-4.416-.005-7.995-3.584-8-8v-8h64z"/><path d="m425.613 352c-7.72-.005-15.053 3.377-20.062 9.251-9.46-11.08-26.111-12.393-37.191-2.933-1.04.888-2.01 1.856-2.901 2.895-8.602-10.07-23.352-12.17-34.423-4.9-4.011-2.79-8.777-4.294-13.663-4.313h-43.909c-11.726-15.153-29.811-24.016-48.971-24h-14.32c-15.592-.006-30.609 5.891-42.03 16.506-.889-.333-1.829-.504-2.778-.506h-56c0-4.418-3.582-8-8-8h-65.352c-4.418 0-8 3.582-8 8v128c0 4.418 3.582 8 8 8h129.352c4.418 0 8-3.582 8-8v-6.777l102.877 14.7c.375.054.753.08 1.131.08.332 0 .664-.021.993-.062l112.547-14.081c12.192-1.449 23.022-8.474 29.318-19.015l16.08-26.72c.188-.312.355-.637.5-.972l13.036-30.39c5.742-13.382-.453-28.885-13.835-34.627-3.286-1.41-6.824-2.136-10.399-2.136zm-332.248 112h-49.352v-112h49.352zm64 0h-48v-104h48zm212.348-75.116c.109-.238.218-.506.322-.8l5.912-13.8c1.635-3.815 5.388-6.287 9.539-6.284 5.734 0 10.383 4.648 10.383 10.383 0 1.406-.286 2.798-.839 4.09l-10.941 25.527h-22.576zm-28.34 11.116v-24c-.001-2.256-.322-4.5-.953-6.665 4.686-2.652 10.623-1.244 13.619 3.23 1.947 2.789 2.36 6.371 1.1 9.53-.079.2-.141.4-.2.607l-10.849 25.298h-10.717c4.418 0 8-3.582 8-8zm93.768-17.554-12.824 29.9-15.804 26.254c-3.775 6.313-10.267 10.517-17.573 11.377l-111.5 13.948-104.067-14.863v-86.529c8.639-11.657 22.29-18.532 36.8-18.533h14.32c15.361-.01 29.709 7.664 38.229 20.446 1.485 2.221 3.98 3.554 6.651 3.554h48c2.723.011 5.253 1.405 6.718 3.7.833 1.28 1.278 2.773 1.282 4.3v16h-89.36v16h68.092l-2.085 4.849c-1.74 4.061.141 8.764 4.202 10.504.996.427 2.068.647 3.151.647h80.08c3.198 0 6.089-1.904 7.351-4.842l19.282-44.887c1.634-3.809 5.382-6.277 9.527-6.271 5.725.001 10.365 4.642 10.365 10.367 0 1.402-.285 2.79-.837 4.079z"/><path d="m380.013 256h16v16h-16z"/><path d="m356.013 280h16v16h-16z"/><path d="m404.013 280h16v16h-16z"/><path d="m380.013 304h16v16h-16z"/><path d="m116.013 40h16v16h-16z"/><path d="m92.013 64h16v16h-16z"/><path d="m140.013 64h16v16h-16z"/><path d="m116.013 88h16v16h-16z"/><path d="m396.013 72h16v16h-16z"/><path d="m380.013 88h16v16h-16z"/><path d="m412.013 88h16v16h-16z"/><path d="m396.013 104h16v16h-16z"/><path d="m148.013 216h16v16h-16z"/><path d="m132.013 232h16v16h-16z"/><path d="m164.013 232h16v16h-16z"/><path d="m148.013 248h16v16h-16z"/></svg>