<svg id="Layer_1" enable-background="new 0 0 512 512" height="512" viewBox="0 0 512 512" width="512" xmlns="http://www.w3.org/2000/svg"><g><g><path d="m56.151 358.071c0 24.178 19.657 43.849 43.819 43.849s43.819-19.67 43.819-43.849c0-24.163-19.657-43.82-43.819-43.82s-43.819 19.657-43.819 43.82zm43.82-28.821c15.891 0 28.819 12.929 28.819 28.82 0 15.907-12.928 28.849-28.819 28.849s-28.819-12.941-28.819-28.849c-.001-15.891 12.928-28.82 28.819-28.82z"/><path d="m262.344 295.169c-4.143 0-7.5 3.358-7.5 7.5v29.629c0 4.142 3.357 7.5 7.5 7.5s7.5-3.358 7.5-7.5v-29.629c0-4.142-3.358-7.5-7.5-7.5z"/><path d="m302.349 295.169c-4.143 0-7.5 3.358-7.5 7.5v29.629c0 4.142 3.357 7.5 7.5 7.5s7.5-3.358 7.5-7.5v-29.629c0-4.142-3.358-7.5-7.5-7.5z"/><path d="m342.354 295.169c-4.143 0-7.5 3.358-7.5 7.5v29.629c0 4.142 3.357 7.5 7.5 7.5s7.5-3.358 7.5-7.5v-29.629c0-4.142-3.358-7.5-7.5-7.5z"/><path d="m490.171 431.325c13.494-13.855 21.829-32.756 21.829-53.577 0-15.224-4.468-29.416-12.135-41.368v-59.087c0-19.219-7.721-37.24-21.739-50.745-13.311-12.823-31.438-20.885-51.04-22.7l-23.646-2.205v-59.112c0-7.602-5.643-13.895-12.957-14.953v-25.28c0-.932 2.26-1.999 4.381-2.602l12.334-3.544c3.98-1.144 6.281-5.299 5.137-9.28-1.143-3.981-5.3-6.282-9.279-5.137l-12.313 3.538c-13.771 3.914-15.259 13.209-15.259 17.024v25.106h-4.89c-8.341 0-15.127 6.786-15.127 15.127v54.639l-36.245-3.38-28.794-90.711h3.672c12.593 0 22.838-10.246 22.838-22.839s-10.245-22.839-22.838-22.839h-117.69c-4.142 0-7.5 3.358-7.5 7.5s3.358 7.5 7.5 7.5h117.69c4.322 0 7.838 3.517 7.838 7.839 0 4.25-3.589 7.839-7.838 7.839h-13.921-220.072-13.92c-4.322 0-7.838-3.517-7.838-7.839s3.516-7.839 7.838-7.839h94.385c4.142 0 7.5-3.358 7.5-7.5s-3.358-7.5-7.5-7.5h-94.385c-12.593 0-22.838 10.246-22.838 22.839 0 12.594 10.245 22.839 22.838 22.839h6.421v132.642c-16.81 6.502-32.228 16.504-45.35 29.634-4.687 4.688-7.265 10.929-7.258 17.575.007 6.632 2.588 12.851 7.247 17.49 3.086 3.1 6.858 5.272 10.979 6.392-9.358 14.862-14.781 32.438-14.781 51.26 0 26.288 10.567 50.15 27.67 67.575.189.242.388.478.611.7.223.223.46.423.702.612 17.422 17.086 41.271 27.641 67.543 27.641s50.121-10.555 67.543-27.641c.243-.189.479-.389.702-.612.222-.222.422-.458.611-.7 5.67-5.776 10.623-12.258 14.708-19.303h33.167c.008 0 .016.002.023.002.008 0 .017-.002.025-.002h57.36c4.143 0 7.5-3.358 7.5-7.5s-3.357-7.5-7.5-7.5h-47.291c1.685-6.455 2.867-13.014 3.557-19.619h128.184c-.155 1.99-.259 3.995-.259 6.024 0 4.641.437 9.178 1.229 13.595h-52.73c-4.143 0-7.5 3.358-7.5 7.5s3.357 7.5 7.5 7.5h57.04c3.799 9.441 9.413 17.959 16.42 25.118.178.224.366.441.573.648.206.205.422.392.644.569 13.862 13.549 32.804 21.922 53.673 21.922 20.822 0 39.723-8.336 53.577-21.831.269-.204.531-.421.776-.667.247-.246.464-.508.668-.777zm-12.123-21.284c-2.928-2.93-7.677-2.929-10.606 0s-2.929 7.678.001 10.606l5.786 5.786c-8.648 6.779-19.133 11.304-30.578 12.695v-8.19c0-4.142-3.357-7.5-7.5-7.5s-7.5 3.358-7.5 7.5v8.19c-11.442-1.39-21.924-5.913-30.57-12.688l5.785-5.8c2.926-2.933 2.92-7.681-.013-10.606-2.934-2.926-7.683-2.919-10.606.014l-5.773 5.788c-6.782-8.65-11.31-19.138-12.701-30.588h8.219c4.143 0 7.5-3.358 7.5-7.5s-3.357-7.5-7.5-7.5h-8.219c1.391-11.446 5.916-21.931 12.694-30.579l5.786 5.786c1.465 1.465 3.384 2.197 5.304 2.197 1.919 0 3.839-.732 5.303-2.197 2.93-2.929 2.93-7.677.001-10.606l-5.787-5.787c8.647-6.779 19.133-11.304 30.578-12.694v8.219c0 4.142 3.357 7.5 7.5 7.5s7.5-3.358 7.5-7.5v-8.219c11.449 1.391 21.937 5.918 30.586 12.701l-5.788 5.774c-2.933 2.925-2.938 7.674-.013 10.606 1.465 1.469 3.387 2.204 5.31 2.204 1.916 0 3.833-.73 5.297-2.19l5.8-5.785c6.775 8.646 11.297 19.129 12.688 30.571h-8.19c-4.143 0-7.5 3.358-7.5 7.5s3.357 7.5 7.5 7.5h8.19c-1.391 11.446-5.916 21.931-12.694 30.579zm6.298-140.248h-42.816c-14.531 0-26.353-11.835-26.353-26.382v-25.608l10.521.981c31.442 2.912 54.962 23.855 58.648 51.009zm-113.88-127.262c0-.055.072-.127.127-.127h17.72c.055 0 .127.072.127.127v57.713l-17.974-1.676zm-217.859-39.452h122.082l28.637 90.218h-15.324c-6.225 0-11.929 2.264-16.342 6.007l-20.439-12.61 5.908-9.573c2.176-3.524 1.082-8.146-2.443-10.321-3.525-2.176-8.146-1.082-10.321 2.443l-19.705 31.925c-2.175 3.524-1.082 8.146 2.443 10.321 1.228.758 2.588 1.119 3.932 1.119 2.515 0 4.972-1.265 6.39-3.562l5.918-9.588 20.248 12.492c-.579 2.121-.894 4.35-.894 6.653v44.556h-67.817v-101.234c0-15.798-12.853-28.651-28.65-28.651-4.928 0-9.57 1.253-13.623 3.458zm153.469 105.218v43.167c0 6.449-5.246 11.695-11.694 11.695h-16.685v-44.556c0-5.683 4.623-10.306 10.306-10.306zm-153.469-46.372c0-7.527 6.111-13.651 13.623-13.651 7.527 0 13.65 6.124 13.65 13.651v92.174c-8.462-6.532-17.612-11.955-27.273-16.191zm-85-58.846h70v129.328c-12.06-3.596-24.71-5.462-37.647-5.462-11.058 0-21.905 1.363-32.353 4.003zm32.364 194.246c4.142 0 7.5-3.358 7.5-7.5v-12.895c16.851 1.544 32.234 8.225 44.558 18.474l-9.106 9.107c-2.929 2.929-2.929 7.678 0 10.606 1.464 1.465 3.384 2.197 5.303 2.197s3.839-.732 5.303-2.197l9.109-9.11c10.262 12.323 16.953 27.709 18.499 44.563h-12.923c-4.142 0-7.5 3.358-7.5 7.5s3.358 7.5 7.5 7.5h12.923c-1.546 16.864-8.239 32.258-18.504 44.587l-9.105-9.105c-2.929-2.929-7.678-2.929-10.606 0-2.929 2.929-2.929 7.678 0 10.606l9.103 9.103c-12.324 10.251-27.706 16.933-44.555 18.478v-12.896c0-4.142-3.358-7.5-7.5-7.5s-7.5 3.358-7.5 7.5v12.896c-16.849-1.545-32.232-8.227-44.555-18.478l9.103-9.103c2.929-2.929 2.929-7.678 0-10.606-2.929-2.929-7.678-2.929-10.606 0l-9.105 9.105c-10.265-12.329-16.958-27.723-18.504-44.587h12.895c4.142 0 7.5-3.358 7.5-7.5s-3.358-7.5-7.5-7.5h-12.894c1.546-16.854 8.237-32.24 18.499-44.563l9.109 9.11c1.464 1.465 3.384 2.197 5.303 2.197s3.839-.732 5.303-2.197c2.929-2.929 2.929-7.677 0-10.606l-9.106-9.107c12.324-10.249 27.708-16.93 44.558-18.474v12.896c.001 4.141 3.359 7.499 7.501 7.499zm90.615 94.017c3.822-10.377 5.911-21.584 5.911-33.271 0-26.292-10.577-50.157-27.694-67.579-.182-.23-.374-.455-.587-.668-.214-.214-.44-.407-.671-.59-17.425-17.099-41.287-27.663-67.574-27.663s-50.15 10.564-67.575 27.664c-.231.182-.457.376-.671.589-1.848 1.847-4.312 2.864-6.941 2.864-.003 0-.007 0-.011 0-2.619-.003-5.069-1.016-6.92-2.875-1.837-1.83-2.85-4.28-2.853-6.899-.003-2.633 1.015-5.102 2.866-6.953 21.922-21.936 51.077-34.016 82.094-34.016 31.018 0 60.181 12.081 82.116 34.016s.001.001.001.001c23.539 23.54 35.413 54.968 33.986 86.96-.074.423-.12.856-.12 1.3 0 .187.014.371.028.554-.538 8.875-2.094 17.781-4.719 26.565h-20.666zm40.499-34.619c-.091-8.988-1.102-17.986-3.047-26.854-4.141-18.882-12.397-36.484-24.133-51.71h90.477c14.72 0 26.694-11.976 26.694-26.695v-42.435l79.101 7.376v27.007c0 22.818 18.551 41.382 41.353 41.382h43.336v34.419c-13.413-11.409-30.768-18.316-49.715-18.316-21.03 0-40.107 8.498-53.997 22.231-.109.097-.221.19-.326.295s-.198.217-.295.326c-8.973 9.075-15.693 20.371-19.284 32.975h-130.164z"/><path d="m435.15 349.182c-15.751 0-28.565 12.814-28.565 28.566 0 15.767 12.814 28.595 28.565 28.595s28.565-12.828 28.565-28.595c.001-15.752-12.814-28.566-28.565-28.566zm0 42.16c-7.48 0-13.565-6.099-13.565-13.595 0-7.48 6.085-13.566 13.565-13.566s13.565 6.085 13.565 13.566c.001 7.497-6.084 13.595-13.565 13.595z"/></g></g></svg>