<svg height="480pt" viewBox="0 -23 480 480" width="480pt" xmlns="http://www.w3.org/2000/svg"><path d="m116 345.296875c-15.464844 0-28 12.535156-28 28s12.535156 28 28 28 28-12.535156 28-28-12.535156-28-28-28zm0 40c-6.628906 0-12-5.371094-12-12s5.371094-12 12-12 12 5.371094 12 12-5.371094 12-12 12zm0 0"/><path d="m332 401.296875c15.464844 0 28-12.535156 28-28s-12.535156-28-28-28-28 12.535156-28 28 12.535156 28 28 28zm0-40c6.628906 0 12 5.371094 12 12s-5.371094 12-12 12-12-5.371094-12-12 5.371094-12 12-12zm0 0"/><path d="m392 373.296875c0-16.980469-7.195312-33.167969-19.800781-44.542969-12.605469-11.378906-29.441407-16.882812-46.335938-15.144531l-6.109375-18.398437-3.425781-17.113282 11.199219-72.800781 52.128906-48.28125c.589844-.125 1.191406-.207031 1.792969-.375l6.878906-1.96875 4.398437 9.90625c1.289063 2.863281 4.132813 4.710937 7.273438 4.71875h72c3.234375 0 6.152344-1.949219 7.390625-4.9375s.550781-6.429687-1.734375-8.71875l-30.296875-30.304687-24.320313-118.933594c-.570312-2.792969-2.578124-5.070313-5.277343-5.980469-2.699219-.914063-5.679688-.320313-7.824219 1.554687l-39.3125 34.402344c-1.390625 1.214844-2.320312 2.871094-2.625 4.695313l-7.878906 46.894531c-.261719 1.550781-.0625 3.140625.574218 4.578125l4.800782 10.886719-8.367188 6.847656c-2.667968 2.214844-4.875 4.933594-6.496094 8l-90.632812 65.878906c-2.1875 1.589844-3.425781 4.179688-3.289062 6.882813l4.496093 88.40625-4.261719 33.847656h-24.945312c-4.417969 0-8 3.582031-8 8h-16v-24h32c4.417969 0 8-3.582031 8-8v-16c0-.8125-.125-1.625-.367188-2.398437l-40-128c-1.050781-3.335938-4.140624-5.601563-7.632812-5.601563v-16h-16v16h-48v-16h-16v16c-4.417969 0-8 3.582031-8 8v96h-32v-48c0-17.671875-14.328125-32-32-32h-8v16h8c8.835938 0 16 7.164063 16 16v48h-32v-8h8c4.417969 0 8-3.582031 8-8v-24c0-4.417969-3.582031-8-8-8h-32c-4.417969 0-8 3.582031-8 8v24c0 4.417969 3.582031 8 8 8h8v8h-8c-4.417969 0-8 3.582031-8 8v136c0 4.417969 3.582031 8 8 8h51.503906c3.265625 9.164063 8.703125 17.398437 15.847656 24h-75.351562v16h480v-16h-107.335938c12.316407-11.316406 19.332032-27.273437 19.335938-44zm-376-164h16v8h-16zm360 164c0 24.300781-19.699219 44-44 44s-44-19.699219-44-44 19.699219-44 44-44c24.289062.03125 43.96875 19.710937 44 44zm7.296875-326.761719 26.816406-23.453125 22.054688 107.816407c.308593 1.535156 1.066406 2.949218 2.175781 4.054687l18.34375 18.34375h-47.488281l-5.101563-11.488281-17.066406-38.398438-6.734375-15.152344zm-16 76.121094 4.96875-4.0625 9.453125 21.28125-4.703125 1.34375c-5.054687 1.488281-10.4375-.960938-12.632813-5.753906-2.066406-4.433594-.863281-9.707032 2.921876-12.808594zm-18.464844 16.703125c.296875.972656.644531 1.925781 1.046875 2.859375 2.152344 4.644531 5.597656 8.570312 9.921875 11.308594l-45.242187 41.90625c-1.324219 1.226562-2.195313 2.867187-2.460938 4.65625l-8.289062 54.085937c-8.242188-5.90625-19.160156-6.507812-28-1.542969l-2.953125-58.078124zm-84.832031 189.9375c4.035156 0 7.4375-3.003906 7.9375-7.007813l5.261719-42.144531v-.136719l.65625-5.246093c.644531-5.261719 5.011719-9.277344 10.308593-9.476563 5.296876-.199218 9.953126 3.476563 10.988282 8.675782l4.992187 24.886718c.054688.328125.140625.648438.253907.960938l5.867187 17.601562c-23.046875 8.972656-38.234375 31.15625-38.265625 55.886719 0 1.351563.113281 2.671875.199219 4h-32.199219v-48zm-40 8v24h-16v-24zm.121094-88h-64.121094v-64h44.121094zm-104.121094 8c4.417969 0 8-3.582031 8-8v-96h66.121094l5 16h-47.121094c-4.417969 0-8 3.582031-8 8v80c0 4.417969 3.582031 8 8 8h77.121094l2.878906 9.214844v6.785156h-144c-1.949219 0-3.828125.710937-5.289062 2l-53.726563 47.335937h-12.984375v-73.335937zm-104 120v-30.664063h16c1.949219 0 3.828125-.710937 5.289062-2l53.742188-47.335937h100.96875v80h-16.191406c.085937-1.328125.199218-2.648437.199218-4 0-33.136719-26.863281-60-60-60-33.136718 0-60 26.863281-60 60 0 1.351563.113282 2.671875.199219 4zm56-4c0-24.300781 19.699219-44 44-44s44 19.699219 44 44-19.699219 44-44 44c-24.289062-.03125-43.96875-19.710937-44-44zm84.664062 44c7.148438-6.597656 12.582032-14.835937 15.839844-24h27.496094c4.417969 0 8-3.582031 8-8v-8h16v8c0 4.417969 3.582031 8 8 8h43.496094c3.261718 9.164063 8.703125 17.398437 15.847656 24zm0 0"/><path d="m32 273.296875h16v16h-16zm0 0"/></svg>