<?xml version="1.0" encoding="iso-8859-1"?>
<!-- Generator: Adobe Illustrator 19.0.0, SVG Export Plug-In . SVG Version: 6.00 Build 0)  -->
<svg version="1.1" id="Layer_1" xmlns="http://www.w3.org/2000/svg" xmlns:xlink="http://www.w3.org/1999/xlink" x="0px" y="0px"
	 viewBox="0 0 496 496" style="enable-background:new 0 0 496 496;" xml:space="preserve">
<g>
	<g>
		<path d="M496,312v-58.704C496,215.088,464.912,184,426.704,184c-13.824,0-27.112,4.32-38.344,11.8l-4.72-14.168
			c0.216-1.848,0.36-3.72,0.36-5.632c0-6.136-1.2-11.984-3.304-17.384L392,147.312V144h24c13.232,0,24-10.768,24-24v-9.472
			c9.288-3.312,16-12.112,16-22.528c0-13.232-10.768-24-24-24s-24,10.768-24,24c0,10.416,6.712,19.216,16,22.528V120
			c0,4.416-3.584,8-8,8h-24V0h-16v16H120V0h-16v128H80c-4.416,0-8-3.584-8-8v-9.472C81.288,107.216,88,98.416,88,88
			c0-13.232-10.768-24-24-24S40,74.768,40,88c0,10.416,6.712,19.216,16,22.528V120c0,13.232,10.768,24,24,24h24v3.312l11.304,11.304
			C113.2,164.016,112,169.864,112,176c0,1.912,0.144,3.784,0.36,5.632l-4.72,14.168C96.408,188.32,83.12,184,69.296,184
			C31.088,184,0,215.088,0,253.296V312h16v32c-8.824,0-16,7.176-16,16v32c0,8.824,7.176,16,16,16v64c0,13.232,10.768,24,24,24h32
			c13.232,0,24-10.768,24-24v-64h304v64c0,13.232,10.768,24,24,24h32c13.232,0,24-10.768,24-24v-64c8.824,0,16-7.176,16-16v-32
			c0-8.824-7.176-16-16-16v-32H496z M432,80c4.416,0,8,3.584,8,8s-3.584,8-8,8c-4.416,0-8-3.584-8-8S427.584,80,432,80z M64,96
			c-4.416,0-8-3.584-8-8s3.584-8,8-8s8,3.584,8,8S68.416,96,64,96z M120,32h256v108.688l-3.84,3.84
			C363.352,134.424,350.424,128,336,128c-9.016,0-17.424,2.544-24.64,6.888C301.328,130.432,274.936,120,248,120
			c-26.936,0-53.328,10.432-63.36,14.888C177.424,130.544,169.016,128,160,128c-14.424,0-27.352,6.424-36.16,16.528l-3.84-3.84V32z
			 M197.936,146.704c2.896-1.128,6.28-2.36,10.064-3.584V176v104h-16v-68.32c9.792-8.8,16-21.512,16-35.68
			C208,164.968,204.216,154.816,197.936,146.704z M160,208c-17.648,0-32-14.352-32-32s14.352-32,32-32s32,14.352,32,32
			S177.648,208,160,208z M160,224c5.616,0,10.984-1.024,16-2.8V280h-11.064l-6.08-12.12l-30.152-50.24
			c-2.296-3.824-5.04-7.28-7.984-10.544l0.824-2.48C130.312,216.352,144.264,224,160,224z M168,328h160v16H168V328z M168,312v-16
			h160v16H168z M224,280V138.792c5.136-1.104,10.52-1.968,16-2.416V280H224z M256,280V136.376c5.472,0.456,10.856,1.32,16,2.424V280
			H256z M304,211.68V280h-16V176v-32.864c3.776,1.224,7.16,2.448,10.056,3.576C291.776,154.824,288,164.968,288,176
			C288,190.168,294.208,202.88,304,211.68z M304,176c0-17.648,14.352-32,32-32s32,14.352,32,32s-14.352,32-32,32
			S304,193.648,304,176z M320,280v-58.8c5.016,1.784,10.384,2.8,16,2.8c15.736,0,29.688-7.648,38.44-19.376l0.832,2.48
			c-2.944,3.256-5.688,6.712-7.984,10.544l-30.448,50.784L331.056,280H320z M16,253.296C16,223.904,39.904,200,69.296,200
			c18.616,0,36.128,9.912,45.696,25.872l29.848,49.704l7.16,14.312V344h-4.248l-18.416-22.088
			C115.616,305.448,95.464,296,74.024,296H16V253.296z M126.912,344H96v-27.448c8.04,3.432,15.288,8.688,21.04,15.6L126.912,344z
			 M80,312.328V344H64v-32h10.024C76.032,312,78.024,312.12,80,312.328z M48,312v32H32v-32H48z M80,472c0,4.416-3.584,8-8,8h-8v-16
			H48v16h-8c-4.416,0-8-3.584-8-8v-64h16v40h16v-40h16V472z M464,472c0,4.416-3.584,8-8,8h-8v-16h-16v16h-8c-4.416,0-8-3.584-8-8
			v-64h16v40h16v-40h16V472z M480,392H16v-32h464V392z M369.088,344l9.872-11.848c5.752-6.912,13-12.16,21.04-15.592V344H369.088z
			 M416,344v-31.672c1.976-0.208,3.968-0.328,5.976-0.328H432v32H416z M448,344v-32h16v32H448z M421.976,296
			c-21.44,0-41.592,9.448-55.312,25.904L348.248,344H344v-54.12l6.856-13.768l30.152-50.24c9.568-15.96,27.08-25.872,45.696-25.872
			C456.096,200,480,223.904,480,253.296V296H421.976z"/>
	</g>
</g>
<g>
</g>
<g>
</g>
<g>
</g>
<g>
</g>
<g>
</g>
<g>
</g>
<g>
</g>
<g>
</g>
<g>
</g>
<g>
</g>
<g>
</g>
<g>
</g>
<g>
</g>
<g>
</g>
<g>
</g>
</svg>
