<svg height="480pt" viewBox="0 0 480 480" width="480pt" xmlns="http://www.w3.org/2000/svg"><path d="m200 192h-22.878906c-5.355469-.007812-10.351563 2.667969-13.3125 7.128906l-18.136719 27.199219c-1.644531 2.378906-1.878906 5.457031-.613281 8.058594 1.265625 2.597656 3.839844 4.3125 6.722656 4.480469 2.886719.167968 5.640625-1.234376 7.203125-3.667969l18.136719-27.199219h22.878906c4.417969 0 8-3.582031 8-8s-3.582031-8-8-8zm0 0"/><path d="m336 208h36.800781l19.0625 35.769531c2.082031 3.898438 6.929688 5.375 10.832031 3.292969 3.902344-2.078125 5.378907-6.929688 3.296876-10.832031l-19.082032-35.765625c-2.78125-5.210938-8.203125-8.464844-14.109375-8.464844h-36.800781c-4.417969 0-8 3.582031-8 8s3.582031 8 8 8zm0 0"/><path d="m120 392c-17.671875 0-32 14.328125-32 32s14.328125 32 32 32 32-14.328125 32-32-14.328125-32-32-32zm0 48c-8.835938 0-16-7.164062-16-16s7.164062-16 16-16 16 7.164062 16 16-7.164062 16-16 16zm0 0"/><path d="m376 392c-17.671875 0-32 14.328125-32 32s14.328125 32 32 32 32-14.328125 32-32-14.328125-32-32-32zm0 48c-8.835938 0-16-7.164062-16-16s7.164062-16 16-16 16 7.164062 16 16-7.164062 16-16 16zm0 0"/><path d="m200 328h32c4.417969 0 8-3.582031 8-8s-3.582031-8-8-8h-32c-4.417969 0-8 3.582031-8 8s3.582031 8 8 8zm0 0"/><path d="m408 40h-168.71875c-3.921875-23.066406-23.882812-39.9570312-47.28125-40h-56c-4.417969 0-8 3.582031-8 8v8h-32c-4.417969 0-8 3.582031-8 8s3.582031 8 8 8h32v32h-32c-4.417969 0-8 3.582031-8 8s3.582031 8 8 8h32v8c0 4.417969 3.582031 8 8 8h56c23.398438-.042969 43.359375-16.933594 47.28125-40h168.71875c30.914062.035156 55.964844 25.085938 56 56v176h-3.199219l-52.703125-98.824219c-6.941406-13.046875-20.519531-21.191406-35.296875-21.175781h-195.679687c-13.378906-.007812-25.875 6.679688-33.289063 17.816406l-68.113281 102.183594h-19.71875c-30.914062.035156-55.9648438 25.085938-56 56v80c0 4.417969 3.582031 8 8 8h56.640625c3.953125 27.535156 27.542969 47.976562 55.359375 47.976562s51.40625-20.441406 55.359375-47.976562h145.28125c3.953125 27.535156 27.542969 47.976562 55.359375 47.976562s51.40625-20.441406 55.359375-47.976562h24.640625c13.253906 0 24-10.746094 24-24v-296c-.042969-39.746094-32.253906-71.957031-72-72zm-216 40h-48v-64h48c17.671875 0 32 14.328125 32 32s-14.328125 32-32 32zm201.976562 116.703125 48.6875 91.296875h-154.664062v-104h84.800781c8.867188-.015625 17.015625 4.875 21.175781 12.703125zm-121.976562 91.296875h-8v-104h8zm-114.847656-93.3125c4.449218-6.675781 11.945312-10.6875 19.96875-10.6875h70.878906v104h-153.054688zm-141.152344 149.3125c.027344-22.082031 17.917969-39.972656 40-40h192v112h-72.566406c-.089844-.617188-.242188-1.214844-.355469-1.824219-.132813-.761719-.261719-1.511719-.429687-2.253906-.222657-1.027344-.496094-2.035156-.800782-3.035156-.199218-.695313-.375-1.398438-.601562-2.085938-.34375-1.058593-.734375-2.082031-1.140625-3.113281-.234375-.589844-.441407-1.199219-.699219-1.792969-.511719-1.191406-1.085938-2.34375-1.679688-3.488281-.207031-.390625-.375-.796875-.589843-1.191406-.832031-1.53125-1.734375-3.007813-2.703125-4.4375-.167969-.265625-.371094-.496094-.554688-.753906-.800781-1.160157-1.597656-2.296876-2.535156-3.390626-.367188-.457031-.800781-.878906-1.167969-1.328124-.742187-.855469-1.488281-1.703126-2.28125-2.503907-.46875-.480469-.964843-.929687-1.453125-1.394531-.761718-.71875-1.53125-1.4375-2.328125-2.117188-.546875-.457031-1.097656-.890624-1.65625-1.320312-.800781-.632812-1.601562-1.242188-2.402343-1.824219-.597657-.425781-1.207032-.800781-1.824219-1.214843-.839844-.546876-1.6875-1.066407-2.558594-1.601563-.648437-.367187-1.296875-.71875-1.953125-1.0625-.886719-.464844-1.796875-.898437-2.710938-1.3125-.679687-.304687-1.351562-.609375-2.039062-.890625-.953125-.382812-1.921875-.726562-2.898438-1.054688-.6875-.238281-1.367187-.488281-2.070312-.695312-1.03125-.304688-2.078125-.550781-3.128906-.800781-.679688-.160157-1.351563-.335938-2.039063-.472657-1.175781-.230468-2.398437-.390624-3.566406-.550781-.59375-.074219-1.167969-.183593-1.769531-.242187-1.816406-.140625-3.648438-.246094-5.496094-.246094s-3.679688.105469-5.480469.28125c-.597656.054688-1.175781.167969-1.765625.238281-1.203125.160157-2.402344.320313-3.570312.550781-.6875.136719-1.359375.3125-2.03125.472657-1.054688.25-2.105469.503906-3.136719.800781-.703125.207031-1.382813.457031-2.070313.695312-.976562.328126-1.945312.671876-2.898437 1.058594-.6875.277344-1.359375.582032-2.039063.886719-.910156.414063-1.824218.847656-2.710937 1.3125-.65625.34375-1.304687.695313-1.953125 1.0625-.871094.496094-1.71875 1.015625-2.566406 1.601563-.609375.390624-1.21875.800781-1.816406 1.207031-.800782.585937-1.640626 1.199219-2.402344 1.832031-.558594.433594-1.109375.863281-1.65625 1.320312-.796875.679688-1.597656 1.398438-2.328125 2.121094-.484375.460938-.980469.910156-1.453125 1.390625-.800782.800781-1.535156 1.648438-2.28125 2.503907-.382813.449218-.800782.871093-1.167969 1.328124-.902344 1.105469-1.75 2.257813-2.566406 3.425782-.167969.246094-.351563.46875-.519531.710937-.972657 1.4375-1.875 2.921875-2.707032 4.445313-.214844.386718-.382812.800781-.589844 1.195312-.59375 1.144532-1.167968 2.292969-1.679687 3.488282-.257813.589843-.464844 1.199218-.699219 1.789062-.40625 1.035156-.796875 2.058594-1.140625 3.113281-.226562.6875-.402343 1.382813-.601562 2.078125-.28125 1.011719-.550781 2.019532-.800781 3.050782-.160157.734374-.289063 1.488281-.421876 2.238281-.113281.609375-.265624 1.207031-.351562 1.832031h-48.59375zm104 120c-22.089844 0-40-17.910156-40-40s17.910156-40 40-40 40 17.910156 40 40c-.027344 22.082031-17.917969 39.972656-40 40zm256 0c-22.089844 0-40-17.910156-40-40s17.910156-40 40-40 40 17.910156 40 40c-.027344 22.082031-17.917969 39.972656-40 40zm88-56c0 4.417969-3.582031 8-8 8h-24.566406c-.089844-.617188-.242188-1.214844-.355469-1.824219-.132813-.761719-.261719-1.511719-.429687-2.253906-.222657-1.027344-.496094-2.035156-.800782-3.035156-.199218-.695313-.375-1.398438-.601562-2.085938-.34375-1.058593-.734375-2.082031-1.140625-3.113281-.234375-.589844-.441407-1.199219-.699219-1.792969-.511719-1.191406-1.085938-2.34375-1.679688-3.488281-.207031-.390625-.375-.796875-.589843-1.191406-.832031-1.53125-1.734375-3.007813-2.703125-4.4375-.167969-.265625-.371094-.496094-.554688-.753906-.800781-1.160157-1.597656-2.296876-2.535156-3.390626-.367188-.457031-.800781-.878906-1.167969-1.328124-.742187-.855469-1.488281-1.703126-2.28125-2.503907-.46875-.480469-.964843-.929687-1.453125-1.394531-.761718-.71875-1.53125-1.4375-2.328125-2.117188-.546875-.457031-1.097656-.890624-1.65625-1.320312-.800781-.632812-1.601562-1.242188-2.402343-1.824219-.597657-.425781-1.207032-.800781-1.824219-1.214843-.839844-.546876-1.6875-1.066407-2.558594-1.601563-.648437-.367187-1.296875-.71875-1.953125-1.0625-.886719-.464844-1.796875-.898437-2.710938-1.3125-.679687-.304687-1.351562-.609375-2.039062-.890625-.953125-.382812-1.921875-.726562-2.898438-1.054688-.6875-.238281-1.367187-.488281-2.070312-.695312-1.03125-.304688-2.078125-.550781-3.128906-.800781-.679688-.160157-1.351563-.335938-2.039063-.472657-1.175781-.230468-2.398437-.390624-3.566406-.550781-.59375-.074219-1.167969-.183593-1.769531-.242187-1.816406-.140625-3.648438-.246094-5.496094-.246094s-3.679688.105469-5.480469.28125c-.597656.054688-1.175781.167969-1.765625.238281-1.203125.160157-2.402344.320313-3.570312.550781-.6875.136719-1.359375.3125-2.03125.472657-1.054688.25-2.105469.503906-3.136719.800781-.703125.207031-1.382813.457031-2.070313.695312-.976562.328126-1.945312.671876-2.898437 1.058594-.6875.277344-1.359375.582032-2.039063.886719-.910156.414063-1.824218.847656-2.710937 1.3125-.65625.34375-1.304687.695313-1.953125 1.0625-.871094.496094-1.71875 1.015625-2.566406 1.601563-.609375.390624-1.21875.800781-1.816406 1.207031-.800782.585937-1.601563 1.199219-2.402344 1.832031-.558594.433594-1.109375.863281-1.65625 1.320312-.796875.679688-1.597656 1.398438-2.328125 2.121094-.484375.460938-.980469.910156-1.453125 1.390625-.800782.800781-1.535156 1.648438-2.28125 2.503907-.382813.449218-.800782.871093-1.167969 1.328124-.902344 1.105469-1.75 2.257813-2.566406 3.425782-.167969.246094-.351563.46875-.519531.710937-.96875 1.4375-1.867188 2.921875-2.707032 4.445313-.214844.386718-.382812.800781-.589844 1.195312-.59375 1.144532-1.167968 2.292969-1.679687 3.488282-.257813.589843-.464844 1.199218-.699219 1.789062-.40625 1.035156-.796875 2.058594-1.140625 3.113281-.226562.6875-.402343 1.382813-.601562 2.078125-.28125 1.011719-.550781 2.019532-.800781 3.050782-.160157.734374-.289063 1.488281-.421876 2.238281-.113281.609375-.265624 1.207031-.351562 1.832031h-56.59375v-112.03125h200zm0 0"/></svg>