<svg id="Capa_1" enable-background="new 0 0 512 512" height="512" viewBox="0 0 512 512" width="512" xmlns="http://www.w3.org/2000/svg"><g><path d="m387.263 342.484c0 16.641 13.538 30.18 30.18 30.18s30.18-13.539 30.18-30.18-13.538-30.179-30.18-30.179-30.18 13.538-30.18 30.179zm30.18-15.179c8.37 0 15.18 6.81 15.18 15.179 0 8.37-6.81 15.18-15.18 15.18s-15.18-6.81-15.18-15.18 6.81-15.179 15.18-15.179z"/><path d="m99.995 342.484c0-16.641-13.539-30.179-30.18-30.179s-30.179 13.539-30.179 30.179c0 16.641 13.539 30.18 30.179 30.18 16.642 0 30.18-13.539 30.18-30.18zm-45.359 0c0-8.37 6.81-15.179 15.179-15.179 8.37 0 15.18 6.81 15.18 15.179 0 8.37-6.81 15.18-15.18 15.18-8.369 0-15.179-6.81-15.179-15.18z"/><path d="m505.152 269.241-32.956-31.118c-8.49-8.02-18.231-14.191-28.684-18.374l-5.48-6.158c-.01-.012-.023-.021-.033-.032l-57.316-64.376c-9.718-10.927-23.874-16.302-38.127-14.822l-10.663-23.047c-2.212-4.811-7.685-7.221-12.699-5.621l-33.631 10.6c-3.95 1.246-6.144 5.458-4.898 9.408 1.245 3.951 5.459 6.144 9.408 4.899l29.861-9.412 7.965 17.214-105.575 38.086c-2.666.956-5.54 1.13-8.297.506l-25.99-5.93c-4.037-.923-8.06 1.605-8.981 5.644s1.605 8.059 5.644 8.981l26.002 5.933c5.56 1.258 11.332.908 16.702-1.02l20.661-7.453c-3.717 12.67-11.438 23.902-22.011 31.887l-13.096 9.908c-9.315 7.038-21.713 8.432-32.356 3.637l-29.032-13.092c-7.093-9.555-16.842-16.99-28.153-21.224l-30.783-11.547c-2.573-5.778-2.579-12.34-.076-18.055l57.572 13.136c4.036.923 8.059-1.605 8.98-5.644s-1.605-8.059-5.644-8.98c0 0-100.498-22.925-100.653-22.95-5.475-.892-10.917.792-14.934 4.617-4.014 3.823-5.959 9.173-5.335 14.675l.078.691-3.03-1.137c-11.302-4.238-23.948 1.509-28.188 12.814-2.053 5.475-1.852 11.421.566 16.745 2.42 5.328 6.771 9.393 12.248 11.443l93.819 35.181c4.906 1.843 8.818 5.698 10.733 10.576.016.04 4.017 9.774 9.256 22.52l-23.292 20.166c-10.065-6.535-22.052-10.348-34.921-10.348-6.476 0-12.871.961-19.008 2.857-3.958 1.223-6.175 5.422-4.952 9.38s5.423 6.173 9.38 4.952c4.701-1.453 9.607-2.189 14.58-2.189 27.194 0 49.318 22.124 49.318 49.317s-22.124 49.317-49.318 49.317c-27.193 0-49.317-22.124-49.317-49.317 0-10.858 3.459-21.156 10.002-29.779 2.504-3.3 1.859-8.004-1.441-10.508-3.299-2.504-8.005-1.858-10.508 1.441-8.539 11.253-13.053 24.686-13.053 38.846 0 35.464 28.853 64.317 64.317 64.317 34.874 0 63.333-27.904 64.273-62.554l22.405-6.645c.385.937.643 1.563.643 1.563 1.172 2.836 3.939 4.639 6.932 4.639h189.09c.708 34.855 29.262 62.997 64.283 62.997 35.465 0 64.318-28.853 64.318-64.317 0-23.202-12.352-43.57-30.822-54.884l3.182-6.336 20.967 19.801c4.247 4.019 9.828 6.144 15.65 5.975 5.847-.165 11.277-2.597 15.293-6.849 8.294-8.778 7.901-22.662-.875-30.951zm-311.442-22.843c10.04 0 19.999-3.223 28.294-9.491l13.094-9.907c14.233-10.749 24.326-26.235 28.422-43.612l1.49-6.354 74.999-27.056c10.803-2.643 22.068.853 29.469 9.175l40.232 45.188-65.025-18.43c-13.864-3.932-28.892.603-38.283 11.558l-52.551 61.381c-3.921 4.583-10.024 6.67-15.933 5.442l-70.184-14.512-5.322-12.948 12.026 5.423c6.169 2.778 12.737 4.143 19.272 4.143zm46.241 73.458c.447 3.187 1.435 6.2 2.869 8.948h-42.606l-12.757-31.038h15.172c.877 0 1.708.379 2.276 1.035l12.835 14.846c3.431 3.946 8.395 6.21 13.62 6.21h8.591zm27.548 8.945c-7.071 0-12.824-5.753-12.824-12.824s5.752-12.824 12.824-12.824 12.824 5.753 12.824 12.824-5.753 12.824-12.824 12.824zm-220.049-170.97c-.124-1.092.433-1.803.775-2.129.327-.312 1.011-.797 2.016-.696l27.534 6.282c-1.7 4.863-2.35 10.013-1.969 15.116l-27.422-10.286zm65.858 63.378-93.826-35.184c-1.724-.646-3.092-1.924-3.854-3.6-.761-1.677-.825-3.55-.178-5.274 1.334-3.561 5.315-5.371 8.876-4.036l93.827 35.194c12.486 4.674 22.467 14.486 27.383 26.92.012.031 38.46 93.574 38.46 93.574h-14.902c-.431-1.05-36.068-87.749-36.373-88.489-3.47-8.812-10.542-15.774-19.413-19.105zm19.395 107.804c-2.519-11.772-8.272-22.351-16.277-30.778l17.617-15.253c5.828 14.18 12.16 29.585 16.719 40.675zm165.775-.21h-6.299c2.005-3.841 3.145-8.202 3.145-12.826 0-15.342-12.482-27.824-27.824-27.824-11.389 0-21.197 6.882-25.497 16.703h-10.643c-.881 0-1.719-.383-2.286-1.035l-12.824-14.834c-3.423-3.954-8.387-6.221-13.62-6.221h-21.337l-6.678-16.247 60.261 12.461c2.133.442 4.278.658 6.408.658 9.109 0 17.904-3.954 23.963-11.035l52.547-61.376c5.594-6.524 14.546-9.226 22.801-6.885l51.83 14.69c-1.586.312-3.171.656-4.751 1.054l-31.173 7.864c-22.371 5.634-39.388 23.084-44.401 45.5zm168.281 13.681c0 27.193-22.124 49.317-49.318 49.317-27.193 0-49.317-22.124-49.317-49.317s22.123-49.317 49.317-49.317 49.318 22.124 49.318 49.317zm-24.025-71.971-5.428 10.807c-6.26-2.038-12.932-3.154-19.864-3.154-30.77 0-56.549 21.724-62.838 50.638h-11.208l11.408-49.675c1.402-6.277 6.151-11.155 12.393-12.729l31.173-7.859c15.656-3.943 32.023.321 43.768 11.407zm52.392 19.379c-1.264 1.337-2.972 2.103-4.812 2.154-1.822.059-3.584-.615-4.924-1.881l-32.955-31.122c-15.493-14.624-37.075-20.247-57.732-15.046l-31.175 7.86c-11.767 2.967-20.719 12.165-23.354 23.96l-12.169 52.987h-14.139l12.861-56.039c3.778-16.896 16.59-30.027 33.438-34.27l31.173-7.864c25.258-6.359 51.63.518 70.557 18.397l32.956 31.118c2.764 2.609 2.886 6.981.275 9.746z"/></g></svg>