<svg height="512pt" viewBox="-27 0 512 512" width="512pt" xmlns="http://www.w3.org/2000/svg"><path d="m415.769531 390.5-37.355469-95.992188c-5.566406-14.3125-15.210937-26.460937-27.886718-35.128906-12.675782-8.667968-27.496094-13.25-42.851563-13.25h-34.242187c-3.011719-3.230468-6.15625-6.339844-9.433594-9.308594v-73.972656c0-22.675781-11.363281-42.742187-28.683594-54.832031 17.144532-10.089844 28.683594-28.726563 28.683594-50.015625 0-31.980469-26.019531-58-58-58s-58 26.019531-58 58c0 17.785156 8.054688 33.71875 20.699219 44.367188-12.492188 5.878906-23.089844 15.582031-30.011719 28.070312-12.019531 21.675781-18.992188 45.917969-20.40625 70.621094-25.703125 6.660156-49.375 19.734375-68.820312 38.121094-21.125 19.980468-36.3125 45.289062-43.914063 73.1875-1.453125 5.332031 1.6875 10.828124 7.019531 12.277343.878906.242188 1.761719.355469 2.632813.355469 4.398437 0 8.429687-2.925781 9.644531-7.375 12.417969-45.582031 48.339844-82.0625 93.160156-95.710938v29.597657c-19.195312 7.46875-35.765625 20.066406-48.230468 36.785156-14.246094 19.097656-21.773438 41.816406-21.773438 65.703125 0 60.652344 49.347656 110 110 110s110-49.347656 110-110c0-50.320312-34.035156-93.824219-82-106.378906v-28.773438c63.449219 13.039063 110 69.257813 110 135.152344 0 76.09375-61.90625 138-138 138-61.269531 0-115.828125-41.085938-132.679688-99.917969-1.523437-5.308593-7.058593-8.378906-12.367187-6.859375-5.308594 1.523438-8.382813 7.058594-6.859375 12.367188 9.257812 32.324218 29.144531 61.4375 55.992188 81.976562 27.738281 21.21875 60.902343 32.433594 95.914062 32.433594 47.328125 0 89.859375-20.921875 118.839844-54h171.160156c5.523438 0 10-4.476562 10-10v-8.738281c0-24.777344-18.382812-45.335938-42.230469-48.761719zm-209.769531-370.5c20.953125 0 38 17.046875 38 38s-17.046875 38-38 38-38-17.046875-38-38 17.046875-38 38-38zm42 334c0 49.625-40.375 90-90 90s-90-40.375-90-90c0-34.792969 19.613281-65.6875 50-80.667969v17.667969c0 18.746094 15.253906 34 34 34s34-15.253906 34-34v-22.566406c36.539062 11.898437 62 46.1875 62 85.566406zm-72-169.667969c-5.523438 0-10 4.476563-10 10v96.667969c0 7.71875-6.28125 14-14 14s-14-6.28125-14-14v-32.402344c0-.027344 0-.054687 0-.085937v-48.105469c0-24.523438 6.285156-48.824219 18.175781-70.273438 8.253907-14.886718 23.953125-24.132812 40.976563-24.132812 25.832031 0 46.847656 21.015625 46.847656 46.847656v58.566406c-17.230469-11.203124-36.835938-19.152343-58-22.929687v-4.148437c0-5.523438-4.476562-10.003907-10-10.003907zm140 169.667969c0-4.035156-.160156-8.035156-.460938-12h1.101563l43.585937 96h-68.464843c15.34375-24.347656 24.238281-53.152344 24.238281-84zm66.191406 84-50.003906-110.132812c-1.621094-3.574219-5.179688-5.867188-9.101562-5.867188h-10.351563c-4.179687-20.253906-12.246094-39.167969-23.433594-55.871094h18.375c23.226563 0 43.679688 13.984375 52.101563 35.632813l39.640625 101.863281c1.496093 3.84375 5.195312 6.375 9.320312 6.375 15.710938 0 28.574219 12.445312 29.234375 28zm0 0"/><path d="m17.070312 361.910156c1.859376-1.859375 2.929688-4.441406 2.929688-7.070312 0-2.640625-1.070312-5.210938-2.929688-7.070313-1.859374-1.871093-4.441406-2.929687-7.070312-2.929687s-5.210938 1.058594-7.070312 2.929687c-1.859376 1.859375-2.929688 4.429688-2.929688 7.070313 0 2.628906 1.070312 5.210937 2.929688 7.070312 1.859374 1.859375 4.441406 2.929688 7.070312 2.929688s5.210938-1.070313 7.070312-2.929688zm0 0"/><path d="m188.085938 404.972656c1.980468 2.332032 4.796874 3.53125 7.632812 3.53125 2.285156 0 4.582031-.78125 6.464844-2.375 15.347656-13.019531 24.148437-32.019531 24.148437-52.128906 0-5.523438-4.476562-10-10-10-5.523437 0-10 4.476562-10 10 0 14.226562-6.226562 27.664062-17.089843 36.878906-4.210938 3.570313-4.726563 9.882813-1.15625 14.09375zm0 0"/><path d="m158.132812 402.332031c-.023437 0-.046874 0-.066406 0h-.066406c-5.523438 0-10 4.476563-10 10 0 5.523438 4.476562 10 10 10h.25c5.519531-.050781 9.9375-4.5625 9.894531-10.078125-.042969-5.496094-4.523437-9.921875-10.011719-9.921875zm0 0"/></svg>