<?xml version="1.0" encoding="iso-8859-1"?>
<!-- Generator: Adobe Illustrator 19.0.0, SVG Export Plug-In . SVG Version: 6.00 Build 0)  -->
<svg version="1.1" id="Capa_1" xmlns="http://www.w3.org/2000/svg" xmlns:xlink="http://www.w3.org/1999/xlink" x="0px" y="0px"
	 viewBox="0 0 512.001 512.001" style="enable-background:new 0 0 512.001 512.001;" xml:space="preserve">
<g>
	<g>
		<path d="M447.234,166.108c-18.789-15.804-43.976-23.448-70.931-21.519c-26.832,1.919-53.74,13.288-75.767,32.014
			c-22.005,18.707-37.747,43.572-44.324,70.015c-6.6,26.53-3.643,52.992,8.325,74.511c1.372,2.466,3.927,3.856,6.562,3.856
			c1.233,0,2.484-0.305,3.639-0.947c3.62-2.014,4.922-6.58,2.909-10.2c-10.115-18.186-12.557-40.773-6.879-63.6
			c5.827-23.423,19.849-45.516,39.484-62.207c19.613-16.673,43.45-26.788,67.122-28.481c23.034-1.644,44.418,4.758,60.206,18.037
			c3.169,2.666,7.901,2.258,10.567-0.912S450.404,168.774,447.234,166.108z"/>
	</g>
</g>
<g>
	<g>
		<path d="M467.634,190.872c-2.013-3.619-6.58-4.921-10.2-2.908c-3.62,2.014-4.922,6.58-2.909,10.2
			c10.115,18.185,12.557,40.771,6.879,63.599c-5.827,23.423-19.849,45.516-39.484,62.207
			c-19.613,16.673-43.451,26.788-67.122,28.481c-23.036,1.642-44.419-4.759-60.206-18.037c-3.17-2.667-7.901-2.258-10.567,0.912
			c-2.666,3.17-2.258,7.901,0.912,10.567c16.883,14.201,38.933,21.812,62.786,21.812c2.693,0,5.41-0.097,8.144-0.293
			c26.832-1.919,53.74-13.288,75.768-32.014c22.005-18.707,37.746-43.572,44.324-70.015
			C482.559,238.853,479.602,212.392,467.634,190.872z"/>
	</g>
</g>
<g>
	<g>
		<path d="M484.563,154.084c-22.646-26.989-56.189-41.852-94.449-41.852c-38.176,0-76.621,14.808-108.252,41.698
			c-31.604,26.867-52.71,62.653-59.432,100.768c-6.879,39.014,2.063,75.672,25.178,103.219
			c22.646,26.989,56.189,41.852,94.449,41.852c38.176,0,76.621-14.808,108.252-41.698c31.604-26.867,52.71-62.653,59.431-100.768
			C516.619,218.288,507.678,181.632,484.563,154.084z M494.968,254.698c-12.646,71.722-81.242,130.072-152.911,130.072
			c-33.75,0-63.212-12.96-82.959-36.493c-20.216-24.092-27.992-56.401-21.896-90.973c12.646-71.722,81.243-130.072,152.911-130.072
			c33.75,0,63.212,12.96,82.959,36.495C493.289,187.818,501.064,220.125,494.968,254.698z"/>
	</g>
</g>
<g>
	<g>
		<path d="M438.227,248.501h-48.885c-0.71-3.233-2.142-6.233-4.25-8.745c-2.036-2.426-4.627-4.304-7.55-5.548l8.649-49.048
			c0.719-4.079-2.004-7.969-6.084-8.688c-4.074-0.718-7.969,2.005-8.688,6.084l-8.955,50.781
			c-9.826,2.645-17.985,11.082-19.798,21.36c-1.138,6.455,0.469,12.851,4.41,17.546c3.886,4.632,9.784,7.288,16.181,7.288
			c10.35,0,20.015-6.677,24.299-16.031h50.67c4.142,0,7.5-3.358,7.5-7.5S442.369,248.501,438.227,248.501z M374.733,254.698
			c-0.924,5.239-6.285,9.835-11.473,9.835c-2.011,0-3.633-0.668-4.692-1.93c-1.099-1.31-1.5-3.192-1.128-5.3
			c0.923-5.235,6.277-9.827,11.462-9.834c0.007,0,0.013,0.001,0.02,0.001c0.004,0,0.008-0.001,0.013-0.001
			c2,0.005,3.614,0.671,4.67,1.929C374.705,250.708,375.105,252.59,374.733,254.698z"/>
	</g>
</g>
<g>
	<g>
		<path d="M356.08,312.74c-4.075-0.717-7.969,2.005-8.688,6.084l-1.414,8.016c-0.719,4.079,2.004,7.969,6.084,8.688
			c0.44,0.078,0.878,0.115,1.311,0.115c3.571,0,6.736-2.561,7.377-6.199l1.414-8.016C362.883,317.349,360.16,313.459,356.08,312.74z
			"/>
	</g>
</g>
<g>
	<g>
		<path d="M301.959,248.501h-8.016c-4.142,0-7.5,3.358-7.5,7.5s3.358,7.5,7.5,7.5h8.016c4.142,0,7.5-3.358,7.5-7.5
			S306.1,248.501,301.959,248.501z"/>
	</g>
</g>
<g>
	<g>
		<path d="M191.863,248.501H7.5c-4.142,0-7.5,3.358-7.5,7.5s3.358,7.5,7.5,7.5h184.363c4.142,0,7.5-3.358,7.5-7.5
			S196.005,248.501,191.863,248.501z"/>
	</g>
</g>
<g>
	<g>
		<path d="M79.642,200.406H63.61c-4.142,0-7.5,3.358-7.5,7.5c0,4.142,3.358,7.5,7.5,7.5h16.031c4.142,0,7.5-3.358,7.5-7.5
			C87.141,203.764,83.784,200.406,79.642,200.406z"/>
	</g>
</g>
<g>
	<g>
		<path d="M207.894,200.406h-96.189c-4.142,0-7.5,3.358-7.5,7.5c0,4.142,3.358,7.5,7.5,7.5h96.189c4.142,0,7.5-3.358,7.5-7.5
			C215.394,203.764,212.036,200.406,207.894,200.406z"/>
	</g>
</g>
<g>
	<g>
		<path d="M79.643,296.595H63.61c-4.142,0-7.5,3.358-7.5,7.5c0,4.142,3.358,7.5,7.5,7.5h16.032c4.142,0,7.5-3.358,7.5-7.5
			C87.142,299.953,83.785,296.595,79.643,296.595z"/>
	</g>
</g>
<g>
	<g>
		<path d="M199.879,296.595h-88.173c-4.142,0-7.5,3.358-7.5,7.5c0,4.142,3.358,7.5,7.5,7.5h88.173c4.142,0,7.5-3.357,7.5-7.5
			C207.378,299.953,204.021,296.595,199.879,296.595z"/>
	</g>
</g>
<g>
	<g>
		<path d="M239.958,152.311H159.8c-4.142,0-7.5,3.358-7.5,7.5c0,4.142,3.358,7.5,7.5,7.5h80.158c4.142,0,7.5-3.358,7.5-7.5
			C247.458,155.669,244.1,152.311,239.958,152.311z"/>
	</g>
</g>
<g>
	<g>
		<path d="M215.91,344.69h-56.111c-4.142,0-7.5,3.358-7.5,7.5s3.358,7.5,7.5,7.5h56.111c4.142,0,7.5-3.358,7.5-7.5
			S220.053,344.69,215.91,344.69z"/>
	</g>
</g>
<g>
</g>
<g>
</g>
<g>
</g>
<g>
</g>
<g>
</g>
<g>
</g>
<g>
</g>
<g>
</g>
<g>
</g>
<g>
</g>
<g>
</g>
<g>
</g>
<g>
</g>
<g>
</g>
<g>
</g>
</svg>
