<svg id="Capa_1" enable-background="new 0 0 480.282 480.282" height="512" viewBox="0 0 480.282 480.282" width="512" xmlns="http://www.w3.org/2000/svg"><path d="m352.282 284.141c-13.255 0-24 10.745-24 24s10.745 24 24 24 24-10.745 24-24c-.015-13.249-10.752-23.985-24-24zm0 32c-4.418 0-8-3.582-8-8s3.582-8 8-8 8 3.582 8 8c-.005 4.416-3.584 7.995-8 8z"/><path d="m208.282 204.141h32v16h-32z"/><path d="m472.282 172.141h-84.686l-37.657-37.657c-1.5-1.5-3.535-2.343-5.657-2.343h-24c-.015-13.248-10.752-23.985-24-24h-102.059c-8.492-.023-16.64 3.352-22.628 9.373l-43.313 43.313v-17.373l13.657-13.656c3.124-3.124 3.124-8.19 0-11.314s-8.19-3.124-11.314 0l-16 16c-1.5 1.5-2.343 3.535-2.343 5.657v32h-40c-2.122 0-4.157.843-5.657 2.343l-14.286 14.286c-5.618-10.247-16.371-16.62-28.057-16.629h-16c-4.418 0-8 3.582-8 8v48c0 4.418 3.582 8 8 8h16c5.62.006 11.14-1.478 16-4.3v5.318c-17.072-4.569-34.616 5.566-39.186 22.638s5.566 34.616 22.638 39.186c.205.055.41.107.615.158-.043.332-.066.666-.068 1v16c0 4.418 3.582 8 8 8s8 3.582 8 8-3.582 8-8 8-8-3.582-8-8-3.582-8-8-8-8 3.582-8 8c.001 13.255 10.747 23.999 24.002 23.998s23.999-10.747 23.998-24.002c-.001-10.17-6.411-19.236-16-22.626v-9.371c-.002-.334-.025-.668-.068-1 4.891-1.257 9.415-3.656 13.2-7h28.893c-1.318 5.121-1.995 10.385-2.017 15.673v.151s0 .117 0 .176c-.006 16.687 6.528 32.711 18.2 44.636.346.426.736.816 1.162 1.162 11.914 11.663 27.921 18.197 44.594 18.202h.042.066c16.741-.01 32.807-6.602 44.73-18.353.299-.258.579-.538.837-.837 11.691-11.862 18.278-27.826 18.353-44.481 0-.05 0-.1 0-.151s0-.117 0-.176c.003-5.397-.677-10.774-2.025-16h84.05c-1.318 5.121-1.995 10.385-2.017 15.673v.151s0 .117 0 .176c-.006 16.687 6.528 32.711 18.2 44.636.346.426.736.816 1.162 1.162 11.916 11.665 27.927 18.198 44.602 18.2h.042s.044 0 .066 0c16.741-.01 32.807-6.602 44.73-18.353.299-.258.579-.538.837-.837 11.691-11.862 18.278-27.826 18.353-44.481 0-.05 0-.1 0-.151s0-.117 0-.176c.003-5.397-.677-10.774-2.025-16h26.033c.654 0 1.306-.08 1.94-.239l32-8c3.562-.89 6.061-4.091 6.06-7.763v-96c.001-4.417-3.581-7.999-7.999-7.999zm-448 48h-8v-32h8c8.832.01 15.99 7.168 16 16-.01 8.832-7.168 15.99-16 16zm20.2 58.329c-.191.19-.373.39-.544.6-6.035 6.455-16.159 6.796-22.615.762-6.455-6.035-6.796-16.159-.762-22.615 5.887-6.297 15.704-6.799 22.202-1.134.093.089.189.175.287.26.36.329.704.673 1.033 1.033.084.097.17.192.258.285 5.201 5.942 5.261 14.799.14 20.811v-.002zm275.8-130.329h20.687l24 24h-44.687zm-48-24h24c4.416.005 7.995 3.584 8 8v40h-32zm-89.372 4.686c2.994-3.011 7.067-4.698 11.313-4.686h62.059v48h-116.686zm-38.628 99.314c2.681.003 5.357.23 8 .679v15.839c-2.653-.339-5.325-.512-8-.518h-.4c-.063 0-.124.008-.186.009-.143 0-.286.006-.429.017-2.324.037-4.644.2-6.95.487.03-7.2.069-14.3.1-15.858 2.599-.434 5.229-.653 7.865-.655zm-8.195 2.365c.164-.532.272-1.08.322-1.634-.046.555-.154 1.103-.322 1.634zm-55.805 45.635h-17.013c1.35-5.248 1.35-10.752 0-16h17.013c.712-.002 1.421-.1 2.108-.29-1.401 5.316-2.11 10.792-2.108 16.29zm-24-32v-16h11.056l4.944 9.889v6.111zm31.155-11.578-8-16c-1.355-2.71-4.125-4.422-7.155-4.422h-17.013c.379-1.475.652-2.976.816-4.49l19.51-19.51h60.687v24.518c-20.272 2.579-38.1 14.665-48 32.542v-9.06c0-1.242-.29-2.467-.845-3.578zm32.931 1.986c-.013 2.045-.025 4.377-.036 6.716-.012 2.666-.022 5.325-.031 7.555-7.304 2.968-13.999 7.257-19.748 12.653-1.025.54-1.921 1.296-2.624 2.217 3.333-12.298 11.4-22.776 22.439-29.141zm56.759 85.17c1.971 3.95 6.771 5.554 10.721 3.583.004-.002.008-.004.012-.006l2.338-1.169c-1.827 5.973-4.803 11.533-8.761 16.365l-12-4c-4.178-1.438-8.73.782-10.168 4.96s.782 8.73 4.96 10.168c.049.017.099.033.148.049l2.464.822c-5.501 2.946-11.528 4.783-17.738 5.406l-5.668-11.336c-2.007-3.936-6.825-5.5-10.761-3.493-3.893 1.985-5.473 6.726-3.549 10.649l1.169 2.338c-5.973-1.826-11.532-4.802-16.364-8.761l4-12c1.379-4.197-.905-8.718-5.103-10.098-4.172-1.371-8.67.878-10.076 5.039l-.821 2.463c-2.946-5.501-4.783-11.528-5.406-17.738l11.336-5.668c3.967-1.945 5.606-6.738 3.661-10.705s-6.738-5.606-10.705-3.661c-.037.018-.075.037-.112.056l-2.338 1.169c.644-2.101 1.432-4.156 2.359-6.148.161-.293.303-.596.425-.907 1.61-3.28 3.587-6.367 5.894-9.2l11.678 3.893c4.192 1.397 8.722-.868 10.119-5.06s-.868-8.722-5.06-10.12l-2.221-.741c5.431-2.931 11.381-4.78 17.517-5.442l5.645 11.291c1.976 3.952 6.782 5.554 10.734 3.577 3.952-1.976 5.554-6.782 3.577-10.733l-1.236-2.471c6.018 1.772 11.629 4.709 16.515 8.644l-4.083 12.248c-1.397 4.192.869 8.723 5.061 10.12s8.722-.869 10.119-5.061l.975-2.926c.358.652.701 1.313 1.028 1.983.122.311.264.614.425.907 2.247 4.833 3.667 10.008 4.2 15.311l-11.336 5.668c-3.95 1.979-5.551 6.784-3.574 10.735zm-8.845-70.891v-14.229c8.263 4.792 14.921 11.926 19.132 20.5.122.311.264.614.425.907 1.234 2.648 2.221 5.405 2.948 8.234-6.312-6.69-13.987-11.946-22.505-15.412zm31.39-4.687c-10.019-17.314-27.546-28.957-47.39-31.482v-24.518h104v29.333l-20 26.667zm88.61 32h-80c.003-5.397-.677-10.774-2.025-16h84.05c-1.348 5.226-2.029 10.602-2.025 16zm96.845 43.578c1.971 3.95 6.771 5.554 10.721 3.583.004-.002.008-.004.012-.006l2.338-1.169c-1.827 5.974-4.803 11.533-8.762 16.365l-12-4c-4.178-1.438-8.73.782-10.168 4.96s.782 8.73 4.96 10.168c.049.017.099.033.148.049l2.465.822c-5.502 2.946-11.529 4.783-17.739 5.406l-5.668-11.336c-2.007-3.936-6.825-5.5-10.761-3.493-3.893 1.985-5.473 6.726-3.549 10.649l1.169 2.338c-5.974-1.826-11.533-4.802-16.365-8.761l4-12c1.378-4.198-.907-8.718-5.105-10.097-4.172-1.37-8.668.878-10.074 5.038l-.821 2.463c-2.946-5.501-4.783-11.528-5.406-17.738l11.336-5.668c3.967-1.945 5.606-6.738 3.661-10.705s-6.738-5.606-10.705-3.661c-.037.018-.075.037-.112.056l-2.338 1.169c.644-2.101 1.432-4.155 2.358-6.148.161-.293.304-.596.427-.907 1.627-3.323 3.633-6.447 5.977-9.31l12 4c4.178 1.438 8.73-.782 10.168-4.96s-.782-8.73-4.96-10.168c-.049-.017-.099-.033-.148-.049l-2.465-.822c5.502-2.946 11.529-4.783 17.739-5.406l5.668 11.336c1.945 3.967 6.738 5.606 10.705 3.661s5.606-6.738 3.661-10.705c-.018-.037-.037-.075-.056-.112l-1.169-2.338c5.974 1.826 11.533 4.802 16.365 8.761l-4 12c-1.416 4.185.83 8.726 5.015 10.141 4.185 1.416 8.726-.83 10.141-5.015.008-.022.015-.045.022-.067l.821-2.463c.268.5.529 1.008.779 1.52.123.311.266.614.427.907 2.247 4.833 3.666 10.008 4.2 15.311l-11.336 5.668c-3.951 1.976-5.552 6.781-3.576 10.733zm-79.345-55.478c.728-2.829 1.714-5.585 2.947-8.234.161-.293.304-.596.427-.907 4.209-8.574 10.864-15.708 19.126-20.501v14.229c-7.686 3.126-14.694 7.713-20.634 13.507-.427.347-.818.738-1.165 1.165-.238.241-.472.493-.701.741zm38.5-19.582v-15.839c5.295-.905 10.705-.905 16 0v15.839c-2.543-.323-5.103-.492-7.666-.509-.056 0-.112 0-.168 0s-.11 0-.166 0c-2.675.003-5.347.173-8 .509zm32 4.169v-14.229c8.263 4.792 14.921 11.926 19.131 20.5.123.311.266.614.427.907 1.233 2.649 2.219 5.405 2.947 8.234-.233-.246-.465-.493-.7-.736-.346-.426-.736-.816-1.162-1.162-5.942-5.798-12.953-10.387-20.643-13.514zm88 21.067-24.984 6.246h-23.016c.003-5.397-.677-10.774-2.025-16h50.025zm0-25.754h-56.61c-17.639-30.591-56.737-41.091-87.328-23.452-9.744 5.618-17.834 13.708-23.452 23.452h-40.61l14.4-19.2c1.039-1.385 1.6-3.069 1.6-4.8v-32h160v8c0 1.242.289 2.467.845 3.578l8 16c1.355 2.71 4.125 4.422 7.155 4.422h16zm0-40h-11.056l-4.944-9.889v-6.111h16z"/><path d="m144.282 284.141c-13.255 0-24 10.745-24 24s10.745 24 24 24 24-10.745 24-24c-.015-13.249-10.752-23.985-24-24zm0 32c-4.418 0-8-3.582-8-8s3.582-8 8-8 8 3.582 8 8c-.005 4.416-3.584 7.995-8 8z"/></svg>