<svg id="Capa_1" enable-background="new 0 0 512 512" height="512" viewBox="0 0 512 512" width="512" xmlns="http://www.w3.org/2000/svg"><g id="XMLID_3497_"><g id="XMLID_3504_"><path id="XMLID_4287_" d="m256 512c-57.849 0-112.235-22.527-153.141-63.433s-63.434-95.292-63.434-153.142c0-39.889 10.779-78.778 31.173-112.467 2.324-3.839 6.915-5.661 11.243-4.453 4.322 1.206 7.312 5.145 7.312 9.632 0 21.839 17.846 47.225 40.853 47.225 22.605 0 40.997-18.392 40.997-40.998 0-7.75-2.109-15.243-6.101-21.667-7.344-11.61-11.248-25.188-11.248-39.198 0-39.288 30.705-71.512 69.911-73.388 15.687-.946 27.968-14.002 27.968-29.746 0-5.489-1.415-10.756-4.092-15.232-1.99-3.328-1.878-7.506.29-10.722 2.167-3.217 5.998-4.888 9.829-4.292 17.507 2.723 33.571 11.636 45.231 25.098 11.8 13.622 18.299 31.042 18.299 49.051 0 15.345-4.637 30.149-13.408 42.813-.038.054-.075.107-.113.16-5.563 7.701-8.502 16.759-8.502 26.193 0 24.583 19.999 44.582 44.582 44.582 24.104 0 43.685-18.807 44.575-42.814.146-3.928 2.579-7.405 6.219-8.89 3.639-1.482 7.81-.697 10.661 2.01 21.083 20.023 37.675 43.629 49.312 70.161 12.049 27.47 18.158 56.722 18.158 86.943 0 42.058-12.07 82.843-34.905 117.947-3.013 4.628-9.206 5.94-13.836 2.93-4.629-3.012-5.94-9.206-2.93-13.836 20.72-31.851 31.671-68.864 31.671-107.041 0-48.22-17.054-93.451-48.385-129.221-9.158 24.566-32.777 41.811-60.54 41.811-35.61 0-64.582-28.972-64.582-64.582 0-13.629 4.227-26.703 12.225-37.815 6.411-9.285 9.799-20.124 9.799-31.351 0-20.817-12.024-39.54-29.795-48.842.158 1.633.237 3.281.237 4.939 0 26.341-20.58 48.178-46.854 49.715-.038.003-.076.005-.114.007-28.549 1.341-50.911 24.803-50.911 53.412 0 10.219 2.833 20.101 8.193 28.575 6.004 9.665 9.155 20.807 9.155 32.29 0 33.635-27.363 60.998-60.997 60.998-16.264 0-31.748-7.658-43.6-21.563-4.387-5.148-8.026-10.901-10.813-16.985-10.629 24.594-16.168 51.34-16.168 78.612.002 108.391 88.184 196.574 196.576 196.574 36.77 0 72.621-10.212 103.678-29.531 4.689-2.918 10.857-1.48 13.773 3.209 2.917 4.689 1.48 10.856-3.209 13.773-34.23 21.294-73.735 32.549-114.242 32.549z"/></g><g id="XMLID_3499_"><g id="XMLID_3500_"><g id="XMLID_3503_"><path id="XMLID_4286_" d="m228.317 417.919c-1.467 0-2.954-.323-4.361-1.007-4.969-2.412-7.04-8.396-4.627-13.363l55.024-113.306c2.412-4.969 8.398-7.039 13.363-4.627 4.968 2.412 7.04 8.396 4.627 13.363l-55.024 113.306c-1.728 3.561-5.293 5.634-9.002 5.634z"/></g><g id="XMLID_3502_"><path id="XMLID_4283_" d="m207.203 334.637c-17.647 0-32.005-14.357-32.005-32.006s14.357-32.006 32.005-32.006 32.006 14.357 32.006 32.006-14.357 32.006-32.006 32.006zm0-44.012c-6.619 0-12.005 5.386-12.005 12.006s5.386 12.006 12.005 12.006c6.62 0 12.006-5.386 12.006-12.006s-5.386-12.006-12.006-12.006z"/></g><g id="XMLID_3501_"><path id="XMLID_4280_" d="m304.797 432.229c-17.648 0-32.006-14.357-32.006-32.005s14.357-32.006 32.006-32.006c17.647 0 32.005 14.357 32.005 32.006 0 17.648-14.358 32.005-32.005 32.005zm0-44.01c-6.62 0-12.006 5.386-12.006 12.006 0 6.619 5.386 12.005 12.006 12.005 6.619 0 12.005-5.386 12.005-12.005 0-6.621-5.386-12.006-12.005-12.006z"/></g></g></g><g id="XMLID_3498_"><path id="XMLID_4279_" d="m400.359 453.189c-2.64 0-5.22-1.069-7.079-2.93-1.86-1.86-2.921-4.44-2.921-7.07 0-2.64 1.061-5.21 2.921-7.069 1.859-1.86 4.439-2.931 7.079-2.931 2.631 0 5.2 1.07 7.061 2.931 1.87 1.859 2.939 4.439 2.939 7.069s-1.069 5.21-2.939 7.07c-1.86 1.861-4.43 2.93-7.061 2.93z"/></g></g></svg>