<svg id="Layer_1" enable-background="new 0 0 512.001 512.001" height="512" viewBox="0 0 512.001 512.001" width="512" xmlns="http://www.w3.org/2000/svg"><g><g><path d="m487.777 396.233c15.862-27.333 24.225-58.433 24.225-90.231 0-99.252-80.748-180-180-180-25.906 0-50.547 5.511-72.825 15.407-7.276-64.839-62.427-115.409-129.177-115.409-71.682 0-130 58.318-130 130 0 22.551 5.827 44.62 16.886 64.103-3.095 11.536-6.19 23.074-9.288 34.632-1.81 6.793.099 13.794 5.105 18.729 4.932 4.859 12.107 6.727 18.745 4.883 11.481-3.077 22.961-6.157 34.441-9.236 19.488 11.063 41.558 16.889 64.111 16.889 7.876 0 15.686-.718 23.361-2.111-.892 7.249-1.359 14.627-1.359 22.112 0 31.417 8.219 62.348 23.767 89.449 2.748 4.791 8.859 6.445 13.65 3.697 4.791-2.749 6.446-8.86 3.697-13.65-13.813-24.077-21.115-51.565-21.115-79.496 0-88.224 71.775-160 160-160s160 71.775 160 160c0 29.563-8.127 58.441-23.503 83.512-1.436 2.34-1.846 5.168-1.134 7.819 4.898 18.254 9.795 36.507 14.688 54.766.395 1.483-.24 2.503-.843 3.097-.409.404-1.534 1.293-3.136.842-.042-.012-.085-.024-.127-.035-18.202-4.878-36.402-9.761-54.603-14.644-2.652-.71-5.479-.301-7.819 1.134-25.077 15.38-53.958 23.509-83.521 23.509-27.93 0-55.421-7.302-79.5-21.118-4.791-2.748-10.903-1.095-13.65 3.697-2.749 4.791-1.093 10.902 3.697 13.65 27.104 15.55 58.036 23.77 89.453 23.77 31.798 0 62.902-8.365 90.241-24.231 16.821 4.513 33.641 9.025 50.464 13.534 7.978 2.223 16.608-.019 22.54-5.864 6.012-5.925 8.304-14.333 6.126-22.505-4.532-16.911-9.064-33.805-13.597-50.701zm-330.464-133.666c-8.882 2.268-18.041 3.433-27.313 3.433-20.325 0-40.18-5.588-57.419-16.161-2.34-1.435-5.167-1.845-7.819-1.134l-3.043.816c-11.498 3.085-22.998 6.17-34.497 9.252 3.355-12.522 6.712-25.031 10.069-37.542.712-2.652.302-5.479-1.134-7.82-10.57-17.234-16.157-37.087-16.157-57.411 0-60.654 49.346-110 110-110 59.116 0 107.482 46.877 109.897 105.411-40.596 24.278-70.876 64.084-82.584 111.156z"/><path d="m245.841 335.753c1.696 0 3.416-.433 4.991-1.342l13.053-7.536c6.233 8.339 14.025 15.574 23.117 21.246v42.882c0 16.542 13.458 30 30 30h30c16.542 0 30-13.458 30-30v-42.882c9.093-5.671 16.885-12.907 23.117-21.246l13.053 7.536c1.575.909 3.294 1.342 4.991 1.342 3.456 0 6.817-1.794 8.669-5.002 2.762-4.783 1.123-10.899-3.66-13.66l-13.053-7.536c3.187-7.43 5.324-15.351 6.288-23.554h15.095c5.523 0 10-4.477 10-10s-4.477-10-10-10h-15.109c-.973-8.264-3.124-16.17-6.302-23.539l13.08-7.552c4.783-2.761 6.422-8.877 3.66-13.66-2.762-4.784-8.877-6.422-13.66-3.66l-13.098 7.562c-15.515-20.719-40.253-34.152-68.071-34.152s-52.556 13.432-68.073 34.151l-13.098-7.562c-4.783-2.762-10.899-1.123-13.66 3.66-2.762 4.783-1.123 10.899 3.66 13.66l13.08 7.552c-3.177 7.369-5.328 15.275-6.302 23.539h-15.109c-5.523 0-10 4.477-10 10s4.477 10 10 10h15.095c.964 8.204 3.101 16.125 6.288 23.554l-13.053 7.536c-4.783 2.761-6.422 8.877-3.66 13.66 1.853 3.21 5.215 5.003 8.671 5.003zm101.161 65.249h-30c-5.514 0-10-4.486-10-10v-20.001h50v20.001c0 5.515-4.486 10-10 10zm-15-190.002c35.841 0 65 29.159 65 65 0 24.162-13.286 46.196-34.674 57.502-3.276 1.732-5.326 5.135-5.326 8.841v8.658h-50v-8.658c0-3.706-2.05-7.108-5.327-8.841-21.387-11.306-34.673-33.34-34.673-57.502 0-35.841 29.159-65 65-65z"/><path d="m130.004 146h-.007c-5.523 0-9.997 4.477-9.997 10s4.481 10 10.004 10 10-4.477 10-10-4.477-10-10-10z"/><path d="m70.002 146h-.007c-5.523 0-9.997 4.477-9.997 10s4.481 10 10.004 10 10-4.477 10-10-4.477-10-10-10z"/><path d="m190.006 146h-.007c-5.523 0-9.997 4.477-9.997 10s4.481 10 10.004 10 10-4.477 10-10-4.477-10-10-10z"/><path d="m211.794 416.209h-.007c-5.523 0-9.996 4.477-9.996 10s4.48 10 10.003 10 10-4.477 10-10-4.477-10-10-10z"/></g></g></svg>