<svg width="295" height="295" viewBox="0 0 295 295" fill="none" xmlns="http://www.w3.org/2000/svg">
<path d="M8.63776 98.016C21.8608 60.925 48.7357 31.203 84.3127 14.325C119.889 -2.554 159.91 -4.567 197.001 8.656C234.092 21.879 263.815 48.754 280.693 84.331C297.57 119.908 299.583 159.928 286.361 197.02C285.248 200.142 281.814 201.768 278.694 200.657C275.572 199.544 273.944 196.112 275.057 192.99C287.204 158.918 285.355 122.155 269.851 89.474C254.347 56.793 227.044 32.105 192.972 19.959C158.9 7.813 122.136 9.663 89.4557 25.166C56.7737 40.67 32.0867 67.973 19.9397 102.045C7.79373 136.117 9.64273 172.88 25.1467 205.561C40.6507 238.242 67.9537 262.93 102.026 275.076C140.215 288.689 182.108 284.569 216.961 263.772C219.809 262.073 223.49 263.004 225.188 265.85C226.886 268.696 225.956 272.379 223.11 274.077C199.903 287.925 173.834 294.98 147.569 294.979C130.895 294.979 114.139 292.134 97.9967 286.38C60.9047 273.157 31.1838 246.282 14.3058 210.705C-2.57224 175.127 -4.58524 135.107 8.63776 98.016Z" fill="black"/>
<path d="M81.4987 147.518C81.4987 144.205 84.1857 141.518 87.4987 141.518H236.929C240.243 141.518 242.929 144.205 242.929 147.518C242.929 150.831 240.243 153.518 236.929 153.518H87.4987C84.1857 153.518 81.4987 150.831 81.4987 147.518Z" fill="black"/>
<path d="M129.312 210.275C131.656 212.618 131.656 216.417 129.312 218.76C128.141 219.931 126.605 220.517 125.07 220.517C123.535 220.517 121.999 219.931 120.828 218.76L53.8277 151.76C51.4837 149.417 51.4837 145.618 53.8277 143.275L120.828 76.275C123.17 73.932 126.971 73.932 129.312 76.275C131.656 78.618 131.656 82.417 129.312 84.76L66.5547 147.517L129.312 210.275Z" fill="black"/>
</svg>
