<?xml version="1.0" encoding="utf-8"?>
<!-- Generator: Adobe Illustrator 24.2.1, SVG Export Plug-In . SVG Version: 6.00 Build 0)  -->
<svg version="1.1" id="Layer_1" xmlns="http://www.w3.org/2000/svg" xmlns:xlink="http://www.w3.org/1999/xlink" x="0px" y="0px"
	 viewBox="0 0 20 20" style="enable-background:new 0 0 20 20;" xml:space="preserve">
<style type="text/css">
	.st0{fill:#fff;}
</style>
<g transform="translate(0.000000,1667.000000) scale(0.100000,-0.100000)">
	<path class="st0" d="M51,16669.9c-10.4-0.4-18.9-1.9-25.8-4.6c-3.4-1.3-7.3-3.5-9.9-5.6c-1.3-1-4-3.8-5.1-5.1
		c-2.7-3.4-5.2-8.2-6.7-13c-1.7-5.3-2.6-10.5-3.3-19.3c-0.2-2.3-0.3-97.2-0.1-101.9c0.5-11.8,2.3-20.8,5.7-27.9
		c5.4-11.3,14.8-18,29.5-20.9c5.1-1,9.8-1.5,16.8-1.7c5.8-0.2,96.9-0.1,99.6,0.1c10.2,0.7,16.8,2,23.1,4.5c1.9,0.7,5,2.3,6.6,3.3
		c4.2,2.6,8.2,6.6,10.7,10.7c4,6.5,6.5,14.8,7.4,25.6c0.5,5.2,0.5,4.7,0.5,52.7c0.1,52.8,0,54.1-0.8,61.1c-2.1,18.6-9,30-21.9,36.1
		c-7,3.3-15.9,5.1-27.6,5.7C147.3,16670,54,16670,51,16669.9z M71.4,16635.5c0.4-5.8,2-10.8,5.1-15.1c4.7-6.7,11.8-11.1,19.8-12.1
		c1.8-0.2,5.3-0.3,6.9-0.1c5.4,0.7,10.4,2.8,14.6,6.1c6.3,5.1,10.2,12.7,10.7,20.8l0.1,1.5l2.4,0l2.4,0l-0.1-1.6
		c-0.3-7-2.9-13.8-7.4-19.4c-1-1.2-3.6-3.9-4.8-4.9c-1.2-1-3.6-2.6-5-3.4c-3.8-2.1-8.3-3.5-12.9-4c-1.8-0.2-6.3-0.1-7.9,0.2
		c-7.3,1.2-13.4,4.2-18.5,9.2c-6,5.9-9.6,13.8-9.9,22l-0.1,1.8H69h2.3L71.4,16635.5z M27.6,16564.8v-5.3h6h6v5.3v5.3h2.6h2.6v-13.1
		v-13.1h-2.6h-2.6v5.3v5.3h-6h-6v-5.3v-5.3h-2.6h-2.6v13.1v13.1h2.6h2.6V16564.8z M57.6,16562.2c0-6.3,0-8.1,0.2-8.8
		c0.6-3.1,2.3-4.6,5.3-4.8c3.3-0.2,5.3,1.2,6.1,4c0.2,0.6,0.2,1.5,0.3,9.1l0,8.4h2.7h2.7v-7.3c0-7.8-0.1-9.8-0.5-11.4
		c-1-4.2-3.7-6.8-7.9-7.7c-0.8-0.2-1.5-0.2-3-0.2c-2.9,0-4.9,0.5-6.7,1.7c-2.5,1.7-4,4.4-4.4,8.1c-0.1,1.3-0.2,16.6,0,16.7
		c0,0,1.3,0.1,2.7,0.1h2.6V16562.2z M99.4,16557.2c3.1-7.1,5.7-13,5.7-13.1l0.1-0.3l-2.8,0l-2.8,0l-1.2,2.7l-1.2,2.7h-6h-6l-1.2-2.7
		l-1.2-2.7l-2.7,0c-2.7,0-2.7,0-2.7,0.2c0,0.1,2.6,6,5.7,13.1l5.7,12.9l2.4,0l2.4,0L99.4,16557.2z M111.7,16561.2
		c1.6-4.9,2.9-8.9,2.9-8.9c0,0,0.4,1.1,0.9,2.5c0.4,1.4,1.8,5.4,2.9,8.9l2.1,6.4h2.2h2.2l2.6-8c1.5-4.4,2.8-8.4,2.9-8.9
		c0.2-0.5,0.3-0.9,0.3-0.9c0.1,0,1.2,3.5,5.1,15.6l0.7,2.2h2.8c1.7,0,2.7,0,2.7-0.1c0-0.1-8.7-25.1-8.9-25.8l-0.2-0.4h-2.2h-2.2
		l-2.9,8.5c-1.6,4.7-3,8.5-3,8.5c0,0-1.4-3.7-2.9-8.2c-1.6-4.5-2.9-8.4-3-8.5c-0.1-0.2-0.3-0.2-2.3-0.2l-2.2,0l-4.5,13
		c-2.5,7.1-4.5,13-4.5,13.1c0,0.1,0.6,0.1,2.8,0.1l2.8,0L111.7,16561.2z M165.6,16567.6v-2.5h-7h-7v-2.6v-2.6h4.8h4.8v-2.4v-2.4
		h-4.8h-4.8v-3.2v-3.2l7.2,0l7.2,0l0-2.4l0-2.4h-9.9h-9.9v13.1v13.1h9.6h9.6V16567.6z M177.7,16557v-13.1h-2.6h-2.6v13.1v13.1h2.6
		h2.6V16557z"/>
	<path class="st0" d="M89.3,16558.8c-1-2.4-1.9-4.5-1.9-4.6c0-0.1,0.8-0.2,3.9-0.2c2.1,0,3.9,0,3.9,0.1c0,0.1-3.8,9-3.9,9
		C91.2,16563.2,90.4,16561.2,89.3,16558.8z"/>
</g>
</svg>
