<svg height="429pt" viewBox="0 -1 429.69021 429" width="429pt" xmlns="http://www.w3.org/2000/svg"><path d="m127.273438 185.078125-.015626.273437c-1.058593 18.542969 9.328126 35.914063 26.46875 44.242188l.175782.085938c6.042968 2.890624 10.996094 7.65625 14.121094 13.582031l.070312.128906c8.636719 16.445313 26.5 26.414063 45.542969 25.414063l.289062-.015626c6.90625-.386718 13.761719 1.394532 19.605469 5.097657 16.125 10.085937 36.59375 10.085937 52.71875 0 5.84375-3.703125 12.699219-5.484375 19.605469-5.097657l.289062.015626c19.011719 1.007812 36.898438-8.96875 45.554688-25.441407l.042969-.089843c3.136718-5.941407 8.101562-10.714844 14.164062-13.609376l.140625-.070312c17.140625-8.332031 27.53125-25.699219 26.46875-44.246094l-.015625-.257812c-.351562-6.53125 1.460938-12.996094 5.164062-18.390625 10.660157-15.546875 10.660157-36.046875.003907-51.597657-3.699219-5.390624-5.519531-11.851562-5.167969-18.382812l.015625-.273438c1.0625-18.546874-9.328125-35.914062-26.484375-44.25l-.15625-.078124c-6.03125-2.882813-10.972656-7.625-14.101562-13.535157l-.089844-.175781c-8.640625-16.445312-26.527344-26.410156-45.539063-25.414062l-.292969.015624c-6.902343.386719-13.757812-1.394531-19.597656-5.097656h-.007812c-16.125-10.085937-36.59375-10.085937-52.71875 0-5.84375 3.699219-12.699219 5.480469-19.605469 5.09375l-.289063-.015625c-19.015624-1.007812-36.898437 8.96875-45.535156 25.410157l-.066406.121093c-3.128906 5.9375-8.085938 10.707031-14.136719 13.601563l-.164062.078125c-17.140625 8.328125-27.53125 25.699219-26.46875 44.246093l.015625.257813c.351562 6.53125-1.460938 12.996094-5.164063 18.386719-10.660156 15.550781-10.660156 36.054687 0 51.601562 3.699219 5.390625 5.515625 11.855469 5.160157 18.386719zm8.007812-60.902344c5.714844-8.320312 8.515625-18.296875 7.96875-28.375l-.015625-.273437c-.5625-12.289063 6.335937-23.703125 17.472656-28.925782l.136719-.066406c9.136719-4.375 16.617188-11.578125 21.335938-20.539062l.078124-.148438c5.738282-10.929687 17.757813-17.554687 30.523438-16.875l.28125.011719c10.214844.574219 20.351562-2.058594 28.992188-7.535156 10.910156-6.824219 24.753906-6.824219 35.664062 0 8.640625 5.46875 18.777344 8.105469 28.988281 7.539062l.28125-.015625c12.828125-.671875 24.789063 5.945313 30.511719 16.84375l.105469.199219c4.71875 8.949219 12.191406 16.140625 21.316406 20.511719l.132813.066406c11.3125 5.5 18.179687 16.855469 17.488281 28.9375l-.015625.285156c-.546875 10.078125 2.257812 20.050782 7.972656 28.371094 6.90625 10.074219 6.902344 23.355469-.007812 33.425781-5.710938 8.324219-8.511719 18.300781-7.964844 28.378907l.015625.269531c.691406 12.082031-6.175781 23.441406-17.492188 28.945312l-.117187.054688c-9.144532 4.382812-16.632813 11.59375-21.355469 20.570312l-.058594.117188c-5.742187 10.929687-17.742187 17.558593-30.527343 16.875l-.277344-.015625c-10.214844-.570313-20.355469 2.066406-29 7.539062-10.90625 6.820313-24.75 6.820313-35.65625 0-7.859375-4.980468-16.976563-7.621094-26.28125-7.613281-.902344 0-1.808594.023437-2.714844.074219l-.28125.011718c-12.597656.800782-24.515625-5.792968-30.535156-16.890624l-.082032-.152344c-4.710937-8.945313-12.179687-16.132813-21.300781-20.503906l-.148437-.074219c-11.316406-5.5-18.183594-16.859375-17.488282-28.9375l.015626-.285157c.542968-10.078124-2.261719-20.054687-7.972657-28.371093-6.902343-10.074219-6.898437-23.355469.011719-33.421875zm0 0"/><path d="m208.269531 223.601562c3.746094 2.339844 8.679688 1.195313 11.019531-2.550781l94.769532-151.820312c1.546875-2.425781 1.675781-5.496094.332031-8.039063-1.34375-2.546875-3.953125-4.171875-6.828125-4.261718-2.875-.089844-5.578125 1.371093-7.078125 3.828124l-94.765625 151.820313c-2.339844 3.75-1.199219 8.683594 2.550781 11.023437zm0 0"/><path d="m216.761719 141.292969c19.480469 0 35.332031-18.074219 35.332031-40.289063s-15.851562-40.285156-35.332031-40.285156-35.328125 18.070312-35.328125 40.285156 15.847656 40.289063 35.328125 40.289063zm0-64.574219c10.660156 0 19.332031 10.894531 19.332031 24.285156s-8.671875 24.289063-19.332031 24.289063c-10.65625 0-19.328125-10.902344-19.328125-24.289063 0-13.386718 8.671875-24.285156 19.328125-24.285156zm0 0"/><path d="m267.683594 180.800781c0 22.214844 15.847656 40.285157 35.328125 40.285157s35.332031-18.074219 35.332031-40.285157c0-22.207031-15.847656-40.285156-35.328125-40.285156-19.484375 0-35.332031 18.066406-35.332031 40.285156zm54.660156 0c0 13.390625-8.671875 24.285157-19.332031 24.285157-10.65625 0-19.328125-10.894532-19.328125-24.285157s8.671875-24.285156 19.328125-24.285156c10.660156 0 19.332031 10.886719 19.332031 24.285156zm0 0"/><path d="m428.652344 313.644531c-10.59375-18.800781-34.085938-25.960937-53.363282-16.265625l-62.667968 29.609375c-8.652344-16.089843-25.25-26.332031-43.515625-26.847656l-57.851563-1.59375c-9.160156-.261719-18.148437-2.585937-26.292968-6.789063l-5.886719-3.050781c-30.140625-15.710937-66.066407-15.671875-96.175781.101563l.367187-13.335938c.121094-4.417968-3.359375-8.097656-7.777344-8.21875l-63.4375-1.746094c-4.417969-.121093-8.09375 3.359376-8.214843 7.777344l-3.83203175 139.214844c-.12109425 4.417969 3.35937475 8.097656 7.77734375 8.21875l63.4375 1.746094h.222656c4.332032-.003906 7.875-3.453125 7.996094-7.78125l.179688-6.660156 16.480468-8.824219c6.46875-3.480469 14.035156-4.308594 21.101563-2.308594l98.410156 27.621094c.171875.050781.34375.089843.519531.128906 7.113282 1.488281 14.363282 2.234375 21.632813 2.230469 15.390625.007812 30.601562-3.308594 44.589843-9.730469.34375-.15625.675782-.335937.992188-.539063l142.6875-92.300781c3.558594-2.296875 4.707031-6.972656 2.621094-10.65625zm-412.433594 91.296875 3.390625-123.214844 47.445313 1.304688-3.394532 123.21875zm258.921875-2.097656c-17.378906 7.84375-36.789063 10.007812-55.46875 6.1875l-98.148437-27.542969c-11.042969-3.125-22.871094-1.828125-32.976563 3.605469l-8.421875 4.507812 2.257812-81.925781c26.683594-17.75 60.910157-19.574219 89.332032-4.765625l5.886718 3.050782c10.289063 5.3125 21.640626 8.246093 33.214844 8.578124l57.851563 1.59375c16.25.464844 30.050781 12.035157 33.347656 27.957032l-86.171875-2.371094c-4.417969-.121094-8.09375 3.359375-8.214844 7.777344-.121094 4.417968 3.359375 8.097656 7.777344 8.21875l95.097656 2.617187h.226563c4.328125-.003906 7.871093-3.453125 7.992187-7.78125.097656-3.476562-.164062-6.957031-.773437-10.378906l64.265625-30.371094.1875-.089843c9.117187-4.617188 20.144531-3.074219 27.640625 3.867187zm0 0"/></svg>