<svg height="512pt" viewBox="0 0 512 512" width="512pt" xmlns="http://www.w3.org/2000/svg"><path d="m175.546875 384.304688c17.941406-14.894532 29.386719-37.359376 29.386719-62.445313 0-44.742187-36.394532-81.140625-81.125-81.140625-44.734375 0-81.128906 36.398438-81.128906 81.140625 0 25.085937 11.445312 47.546875 29.386718 62.445313-40.449218 18.617187-69.34375 58.398437-72.0312498 105.527343-.3281252 5.714844 1.7460938 11.386719 5.6874998 15.558594 3.964844 4.203125 9.554688 6.609375 15.332032 6.609375h205.507812c5.773438 0 11.363281-2.40625 15.328125-6.609375 3.945313-4.171875 6.015625-9.84375 5.691406-15.558594-2.691406-47.128906-31.582031-86.910156-72.035156-105.527343zm-102.867187-62.445313c0-28.199219 22.9375-51.140625 51.128906-51.140625s51.125 22.941406 51.125 51.140625-22.933594 51.140625-51.125 51.140625-51.128906-22.941406-51.128906-51.140625zm-41.664063 160.140625c7.203125-45 46.253906-79 92.792969-79 46.539062 0 85.59375 33.996094 92.789062 79zm0 0"/><path d="m369.605469 0c-78.515625 0-142.394531 64.292969-142.394531 143.320312 0 21.300782 4.765624 42.457032 13.796874 61.574219-4.378906 13.933594-14.589843 25.429688-28.074218 31.28125-7.601563 3.296875-11.085938 12.132813-7.789063 19.730469.628907 1.449219 1.457031 2.742188 2.441407 3.875 12.714843 14.617188 31.074218 23 50.375 23 15.292968 0 29.90625-5.242188 41.648437-14.648438 21.289063 12.128907 45.242187 18.507813 69.996094 18.507813 78.515625 0 142.394531-64.292969 142.394531-143.320313 0-79.027343-63.878906-143.320312-142.394531-143.320312zm0 256.640625c-22.789063 0-44.726563-6.832031-63.445313-19.765625l-.003906.003906c-6.296875-4.359375-14.996094-3.289062-20.015625 2.699219-7.039063 8.390625-17.308594 13.203125-28.179687 13.203125-4.257813 0-8.433594-.753906-12.363282-2.167969 13.082032-11.386719 22.359375-26.871093 26.027344-44.261719.769531-3.632812.140625-7.230468-1.503906-10.257812-8.445313-16.140625-12.90625-34.382812-12.90625-52.773438-.003906-62.484374 50.417968-113.320312 112.390625-113.320312 61.976562 0 112.394531 50.835938 112.394531 113.320312 0 62.484376-50.417969 113.320313-112.394531 113.320313zm0 0"/><path d="m338.347656 112.703125c7.429688 3.667969 16.421875.617187 20.089844-6.8125 2.277344-4.617187 7.039062-7.5 12.238281-7.300781 6.679688.242187 12.324219 5.871094 12.578125 12.550781.242188 6.417969-4.121094 12.023437-10.375 13.328125-10.253906 2.132812-17.695312 11.222656-17.695312 21.613281v10.394531c0 8.285157 6.714844 15 15 15 8.28125 0 15-6.714843 15-15v-4.410156c17.261718-6.363281 28.765625-23.144531 28.046875-42.066406-.851563-22.402344-19.070313-40.585938-41.480469-41.390625-16.90625-.605469-32.71875 8.816406-40.214844 24.003906-3.667968 7.429688-.617187 16.425781 6.8125 20.089844zm0 0"/><path d="m370.191406 179.738281c-8.285156 0-15 6.714844-15 15v8.320313c0 8.28125 6.714844 15 15 15s15-6.71875 15-15v-8.320313c0-8.285156-6.714844-15-15-15zm0 0"/></svg>