<svg id="Capa_1" enable-background="new 0 0 512.013 512.013" height="512" viewBox="0 0 512.013 512.013" width="512" xmlns="http://www.w3.org/2000/svg"><g id="XMLID_1412_"><g id="XMLID_1341_"><path id="XMLID_1767_" d="m496.209 61.105 6.446-6.446c12.477-12.477 12.477-32.778 0-45.255-6.045-6.044-14.08-9.372-22.628-9.372s-16.583 3.329-22.627 9.372l-6.446 6.446-12.744-12.744c-1.874-1.874-4.415-2.927-7.065-2.929l-137.078-.075c-.01 0-.019 0-.028 0-13.354 0-25.91 5.201-35.354 14.645l-244.04 244.04c-9.444 9.443-14.645 21.999-14.645 35.355s5.201 25.912 14.645 35.355l167.862 167.863c9.748 9.747 22.552 14.621 35.355 14.621s25.607-4.874 35.355-14.621l90.21-90.211c3.905-3.905 3.905-10.237 0-14.142-3.906-3.905-10.236-3.905-14.143 0l-90.21 90.21c-11.695 11.697-30.729 11.697-42.426 0l-167.861-167.863c-5.667-5.666-8.787-13.199-8.787-21.212s3.12-15.547 8.787-21.213l244.04-244.04c5.667-5.667 13.199-8.787 21.212-8.787h.017l132.938.074 9.817 9.818-26.796 26.796c-15.298-1.659-30.542 3.618-41.547 14.622-19.884 19.885-19.884 52.239 0 72.125 9.633 9.632 22.44 14.938 36.063 14.938s26.431-5.305 36.063-14.938c10.989-10.989 16.261-26.182 14.632-41.447l26.84-26.84 9.928 9.927-.074 132.787c-.005 8.007-3.125 15.535-8.787 21.196l-90.21 90.21c-3.905 3.905-3.905 10.237 0 14.143 1.953 1.952 4.512 2.929 7.071 2.929s5.118-.977 7.071-2.929l90.21-90.21c9.437-9.437 14.637-21.983 14.645-35.328l.076-136.933c.002-2.654-1.052-5.2-2.929-7.077zm-16.182-41.073c3.205 0 6.219 1.248 8.485 3.515 4.679 4.679 4.679 12.292 0 16.97l-59.912 59.912c-2.267 2.267-5.279 3.515-8.484 3.515s-6.219-1.248-8.485-3.515c-4.679-4.679-4.679-12.292 0-16.97l59.912-59.912c2.266-2.267 5.279-3.515 8.484-3.515zm-75.496 118.44c-8.28 0-16.064-3.225-21.92-9.08-12.087-12.087-12.087-31.754 0-43.84 2.347-2.347 5.015-4.263 7.888-5.723-4.716 11.572-2.387 25.366 6.989 34.742 6.044 6.044 14.08 9.373 22.628 9.373 4.184 0 8.244-.802 12.009-2.326-1.453 2.83-3.354 5.456-5.673 7.774-5.855 5.856-13.639 9.08-21.921 9.08z"/><path id="XMLID_1778_" d="m420.31 248.672-156.978-156.977c-1.876-1.875-4.419-2.929-7.071-2.929s-5.195 1.054-7.071 2.929l-195.163 195.161c-3.905 3.905-3.905 10.237 0 14.143l156.978 156.978c1.876 1.875 4.419 2.929 7.071 2.929s5.195-1.054 7.071-2.929l195.163-195.162c3.905-3.905 3.905-10.237 0-14.143zm-202.234 188.091-142.835-142.836 181.02-181.02 142.835 142.836z"/><path id="XMLID_1779_" d="m168.206 298.481c1.432 4.136 5.305 6.731 9.449 6.731 1.085 0 2.188-.178 3.271-.553l119.026-41.211c5.219-1.807 7.985-7.502 6.178-12.722-1.807-5.218-7.5-7.986-12.721-6.178l-119.025 41.212c-5.219 1.807-7.986 7.502-6.178 12.721z"/><path id="XMLID_1785_" d="m205.163 205.827c0 17.648 14.357 32.005 32.006 32.005 17.647 0 32.005-14.357 32.005-32.005s-14.357-32.006-32.005-32.006-32.006 14.358-32.006 32.006zm44.011 0c0 6.62-5.386 12.005-12.005 12.005-6.62 0-12.006-5.386-12.006-12.005 0-6.62 5.386-12.006 12.006-12.006 6.619 0 12.005 5.386 12.005 12.006z"/><path id="XMLID_1788_" d="m237.169 311.839c-17.648 0-32.006 14.357-32.006 32.005s14.357 32.006 32.006 32.006c17.647 0 32.005-14.358 32.005-32.006s-14.358-32.005-32.005-32.005zm0 44.011c-6.62 0-12.006-5.386-12.006-12.006s5.386-12.005 12.006-12.005c6.619 0 12.005 5.386 12.005 12.005 0 6.62-5.386 12.006-12.005 12.006z"/><path id="XMLID_1789_" d="m368.214 358.298c-2.631 0-5.21 1.07-7.07 2.93s-2.93 4.44-2.93 7.07 1.069 5.21 2.93 7.07c1.86 1.86 4.439 2.93 7.07 2.93 2.64 0 5.21-1.07 7.069-2.93 1.87-1.86 2.931-4.44 2.931-7.07s-1.061-5.21-2.931-7.07c-1.859-1.86-4.429-2.93-7.069-2.93z"/></g></g></svg>