<svg height="512pt" viewBox="0 0 512 512.001" width="512pt" xmlns="http://www.w3.org/2000/svg"><path d="m407 0h-30c-8.285156 0-15 6.714844-15 15v120c0 8.285156 6.714844 15 15 15h30c24.8125 0 45-20.1875 45-45 0-11.515625-4.355469-22.03125-11.496094-30 7.144532-7.96875 11.496094-18.484375 11.496094-30 0-24.8125-20.1875-45-45-45zm-15 30h15c8.269531 0 15 6.730469 15 15s-6.730469 15-15 15h-15zm15 90h-15v-30h15c8.269531 0 15 6.730469 15 15s-6.726562 15-15 15zm0 0"/><path d="m486.394531 154.394531-25.609375 25.605469h-107.570312l-25.609375-25.605469c-5.855469-5.859375-15.351563-5.859375-21.210938 0s-5.859375 15.355469 0 21.210938l30 30c2.8125 2.816406 6.628907 4.394531 10.605469 4.394531h45v63.820312l-272 81.058594v-54.878906h45c3.980469 0 7.792969-1.582031 10.605469-4.394531l30-30c5.859375-5.859375 5.859375-15.355469 0-21.210938-5.855469-5.859375-15.355469-5.859375-21.210938 0l-25.609375 25.605469h-107.570312l-25.609375-25.605469c-5.855469-5.859375-15.351563-5.859375-21.210938 0-5.859375 5.859375-5.859375 15.355469 0 21.210938l30 30c2.8125 2.816406 6.628907 4.394531 10.605469 4.394531h45v75c0 10.082031 9.71875 17.226562 19.285156 14.375 1.304688-.390625 58.386719-17.398438 122.566406-36.527344l-49.96875 139.082032c-1.652343 4.59375-.960937 9.707031 1.847657 13.699218 2.808593 3.996094 7.386719 6.371094 12.269531 6.371094h120c4.882812 0 9.460938-2.375 12.269531-6.371094 2.808594-3.992187 3.5-9.105468 1.847657-13.699218l-54.640626-152.082032c68.46875-20.402344 132.726563-39.550781 135.683594-40.433594 6.417969-1.851562 10.839844-7.730468 10.839844-14.410156v-75.003906h45c3.980469 0 7.796875-1.582031 10.605469-4.394531l30-30c5.859375-5.859375 5.859375-15.355469 0-21.210938-5.855469-5.859375-15.355469-5.859375-21.210938 0zm-269.066406 327.605469 38.671875-107.636719 38.671875 107.636719zm0 0"/><path d="m164.046875 219.734375-45-120c-2.195313-5.855469-7.792969-9.734375-14.046875-9.734375s-11.851562 3.878906-14.046875 9.734375l-45 120c-2.90625 7.753906 1.023437 16.402344 8.78125 19.3125 7.757813 2.90625 16.402344-1.023437 19.3125-8.78125l9.847656-26.265625h42.210938l9.847656 26.265625c2.261719 6.023437 7.976563 9.738281 14.050781 9.738281 1.75 0 3.527344-.308594 5.261719-.957031 7.757813-2.910156 11.6875-11.558594 8.78125-19.3125zm-68.902344-45.734375 9.855469-26.28125 9.855469 26.28125zm0 0"/></svg>