<svg id="Capa_1" enable-background="new 0 0 512.028 512.028" height="512" viewBox="0 0 512.028 512.028" width="512" xmlns="http://www.w3.org/2000/svg"><g id="XMLID_1531_"><g id="XMLID_49_"><path id="XMLID_317_" d="m338.262 238.893c-2.761-4.784-8.877-6.422-13.66-3.66-4.783 2.761-6.422 8.877-3.66 13.66l40.914 70.865c1.87 3.238 2.366 7.011 1.398 10.623s-3.284 6.631-6.523 8.501c-3.239 1.871-7.012 2.366-10.623 1.398s-6.63-3.283-8.5-6.521l-124.003-214.778c-1.869-3.238-2.365-7.01-1.397-10.621.968-3.612 3.284-6.631 6.523-8.501s7.011-2.366 10.624-1.398c3.612.968 6.631 3.284 8.501 6.523l38.085 65.966c2.761 4.783 8.876 6.421 13.66 3.66 4.783-2.761 6.422-8.877 3.66-13.66l-38.085-65.966c-9.373-16.235-30.208-21.819-46.445-12.445-7.865 4.541-13.491 11.873-15.841 20.645-1.3 4.853-1.507 9.825-.668 14.631l-126.124 153.305-33.07 19.093c-15.267 8.814-26.188 23.047-30.751 40.075-4.563 17.028-2.221 34.814 6.594 50.082 8.814 15.268 23.047 26.188 40.075 30.751 5.688 1.524 11.456 2.277 17.19 2.277 4.142 0 8.264-.399 12.321-1.18l88.44 89.236c6.869 6.931 16.046 10.543 25.324 10.543 6.098 0 12.239-1.562 17.793-4.769 9.642-5.566 16.02-15.088 17.498-26.123s-2.169-21.9-10.007-29.808l-14.278-14.407 9.797-5.657c8.071-4.659 13.41-12.629 14.649-21.865 1.239-9.237-1.812-18.333-8.371-24.955l-11.468-11.577 120.091-19.976c3.743 3.13 8.152 5.437 13.006 6.737 2.929.785 5.902 1.174 8.855 1.174 5.892 0 11.706-1.546 16.945-4.57 7.865-4.54 13.491-11.872 15.841-20.645s1.145-17.936-3.396-25.8zm-312.071 131.477c-12.682-21.966-5.129-50.154 16.837-62.837l25.981-15 46 79.675-25.992 15.006c-21.964 12.674-50.145 5.119-62.826-16.844zm181.499 108.08c-.648 4.841-3.446 9.017-7.675 11.458-6.143 3.549-13.919 2.504-18.912-2.532l-82.096-82.835 27.986-16.158 76.308 76.993c3.437 3.468 5.037 8.234 4.389 13.074zm-2.597-79.962c2.161 2.182 3.167 5.179 2.758 8.223-.408 3.043-2.167 5.668-4.826 7.203l-14.355 8.288-39.289-39.642 34.286-5.703zm-71.228-33.622-49.07-84.991 116.706-141.859 113.57 196.709z"/><path id="XMLID_321_" d="m321.416 102.142c1.674 1.077 3.548 1.591 5.402 1.591 3.288 0 6.507-1.62 8.418-4.59l53.859-83.7c2.989-4.644 1.646-10.832-2.998-13.82-4.644-2.99-10.833-1.646-13.82 2.998l-53.859 83.7c-2.989 4.644-1.647 10.832 2.998 13.821z"/><path id="XMLID_322_" d="m502.019 238.193h-111c-5.523 0-10 4.477-10 10s4.477 10 10 10h111c5.523 0 10-4.477 10-10s-4.477-10-10-10z"/><path id="XMLID_325_" d="m359.903 143.366c-2.825 10.543-13.726 16.926-24.303 14.224-3.966-1.011-8.148.495-10.558 3.803-2.409 3.309-2.559 7.751-.378 11.215 11.893 18.885 32.172 29.255 53.133 29.254 10.911-.001 22.01-2.812 32.201-8.696 12.898-7.447 22.49-19.292 27.329-33.406 14.643 2.866 29.696.482 42.595-6.964 29.768-17.186 40.689-54.163 24.862-84.181-1.909-3.621-5.833-5.713-9.902-5.28-4.07.433-7.466 3.301-8.572 7.242-2.949 10.509-13.926 16.761-24.469 13.936-21.67-5.808-44.187 4.806-54.009 24.162-21.674-1.183-42.123 13.023-47.929 34.691zm51.865-13.961c5.236 1.316 10.571-1.766 12.051-6.958 4.005-14.045 18.742-22.394 32.846-18.617 12.691 3.4 25.696.22 35.321-7.436.484 15.461-7.527 30.687-22.064 39.08-10.844 6.26-24.036 7.177-36.193 2.514-2.816-1.081-5.97-.832-8.581.677-2.612 1.508-4.404 4.114-4.876 7.093-2.041 12.86-9.43 23.827-20.273 30.087-14.539 8.394-31.729 7.719-44.877-.432 11.442-4.508 20.7-14.181 24.1-26.871 3.78-14.107 18.382-22.691 32.546-19.137z"/><path id="XMLID_326_" d="m307.099 214.917c2.63 0 5.21-1.07 7.07-2.93s2.93-4.44 2.93-7.07-1.07-5.21-2.93-7.07-4.44-2.93-7.07-2.93-5.21 1.07-7.07 2.93-2.93 4.44-2.93 7.07 1.07 5.21 2.93 7.07 4.44 2.93 7.07 2.93z"/></g></g></svg>