<svg id="Layer_1" enable-background="new 0 0 512 512" height="512" viewBox="0 0 512 512" width="512" xmlns="http://www.w3.org/2000/svg"><path d="m506.662 224.705c-.166-.555-78.041-98.106-99.2-124.65-6.107-7.661-15.227-12.055-25.024-12.055h-225.105c-4.418 0-8 3.582-8 8s3.582 8 8 8h225.105c4.898 0 9.459 2.197 12.512 6.027l11.935 14.973h-80.885c-17.645 0-32 14.355-32 32v46c0 17.645 14.355 32 32 32h168.173c2.427 4.664 1.827 5.629 1.827 33h-26c-13.233 0-24 10.766-24 24s10.767 24 24 24h26v4c0 17.645-14.355 32-32 32h-28.518c-3.951-31.525-30.903-56-63.482-56s-59.531 24.475-63.482 56h-86.518c-4.418 0-8 3.582-8 8s3.582 8 8 8h86.518c3.951 31.525 30.903 56 63.482 56s59.531-24.475 63.482-56h28.518c26.467 0 48-21.533 48-48v-77.605c0-6.286-1.881-12.47-5.338-17.69zm-134.662 183.295c-26.468 0-48-21.533-48-48s21.532-48 48-48 48 21.533 48 48-21.532 48-48 48zm-62-205v-46c0-8.822 7.178-16 16-16h93.639l62.174 78h-155.813c-8.822 0-16-7.177-16-16zm160 97c-4.411 0-8-3.589-8-8s3.589-8 8-8h26v16z"/><path d="m130 296c-32.579 0-59.531 24.475-63.482 56h-18.518c-17.645 0-32-14.355-32-32v-13h23c4.418 0 8-3.582 8-8s-3.582-8-8-8h-23v-14h33c4.418 0 8-3.582 8-8s-3.582-8-8-8h-33v-125c0-17.645 14.355-32 32-32h42.333c4.418 0 8-3.582 8-8s-3.582-8-8-8h-42.333c-26.468 0-48 21.533-48 48v184c0 26.467 21.532 48 48 48h18.518c3.951 31.525 30.903 56 63.482 56 35.29 0 64-28.71 64-64s-28.71-64-64-64zm0 112c-26.468 0-48-21.533-48-48s21.532-48 48-48 48 21.533 48 48-21.532 48-48 48z"/><path d="m130 344c-8.822 0-16 7.178-16 16s7.178 16 16 16 16-7.178 16-16-7.178-16-16-16z"/><path d="m372 344c-8.822 0-16 7.178-16 16s7.178 16 16 16 16-7.178 16-16-7.178-16-16-16z"/><path d="m334 277h16c4.418 0 8-3.582 8-8s-3.582-8-8-8h-16c-4.418 0-8 3.582-8 8s3.582 8 8 8z"/><path d="m134 235h86c17.645 0 32-14.355 32-32v-46c0-17.645-14.355-32-32-32h-86c-17.645 0-32 14.355-32 32v46c0 17.646 14.355 32 32 32zm-16-78c0-8.822 7.178-16 16-16h86c8.822 0 16 7.178 16 16v46c0 8.822-7.178 16-16 16h-86c-8.822 0-16-7.178-16-16z"/><path d="m116.609 99.061c3.315 7.945 15.391 5.717 15.391-3.061 0-5.104-4.69-8.833-9.561-7.84-4.893.961-7.779 6.203-5.83 10.901z"/></svg>